<mxfile host="app.diagrams.net" modified="2024-03-16T15:51:13.605Z" agent="Mozilla/5.0 (Windows NT 10.0; Win64; x64) AppleWebKit/537.36 (KHTML, like Gecko) Chrome/122.0.0.0 Safari/537.36" etag="akni3HFB9lQJx0HUSazq" version="24.0.7" type="device">
  <diagram name="Page-1" id="qr28tNoY6HxqEgFbunrQ">
    <mxGraphModel dx="1909" dy="1013" grid="1" gridSize="10" guides="1" tooltips="1" connect="1" arrows="1" fold="1" page="1" pageScale="1" pageWidth="827" pageHeight="1169" math="0" shadow="0">
      <root>
        <mxCell id="0" />
        <mxCell id="1" parent="0" />
        <mxCell id="jCnkYZPp3mB8eWTGWiLT-14" value="" style="shape=image;imageAspect=0;aspect=fixed;verticalLabelPosition=bottom;verticalAlign=top;image=data:image/png,iVBORw0KGgoAAAANSUhEUgAABAAAAAMACAYAAAC6uhUNAAAAAXNSR0IArs4c6QAAAARzQklUCAgICHwIZIgAAAAJcEhZcwAADsQAAA7EAZUrDhsAAASnaVRYdFhNTDpjb20uYWRvYmUueG1wAAAAAAA8P3hwYWNrZXQgYmVnaW49J++7vycgaWQ9J1c1TTBNcENlaGlIenJlU3pOVGN6a2M5ZCc/Pgo8eDp4bXBtZXRhIHhtbG5zOng9J2Fkb2JlOm5zOm1ldGEvJz4KPHJkZjpSREYgeG1sbnM6cmRmPSdodHRwOi8vd3d3LnczLm9yZy8xOTk5LzAyLzIyLXJkZi1zeW50YXgtbnMjJz4KCiA8cmRmOkRlc2NyaXB0aW9uIHJkZjphYm91dD0nJwogIHhtbG5zOkF0dHJpYj0naHR0cDovL25zLmF0dHJpYnV0aW9uLmNvbS9hZHMvMS4wLyc+CiAgPEF0dHJpYjpBZHM+CiAgIDxyZGY6U2VxPgogICAgPHJkZjpsaSByZGY6cGFyc2VUeXBlPSdSZXNvdXJjZSc+CiAgICAgPEF0dHJpYjpDcmVhdGVkPjIwMjQtMDMtMTY8L0F0dHJpYjpDcmVhdGVkPgogICAgIDxBdHRyaWI6RXh0SWQ+MTNkZDljZjEtYjBjYi00M2E0LWJlMjUtNzcwNmI2YzAyNTE5PC9BdHRyaWI6RXh0SWQ+CiAgICAgPEF0dHJpYjpGYklkPjUyNTI2NTkxNDE3OTU4MDwvQXR0cmliOkZiSWQ+CiAgICAgPEF0dHJpYjpUb3VjaFR5cGU+MjwvQXR0cmliOlRvdWNoVHlwZT4KICAgIDwvcmRmOmxpPgogICA8L3JkZjpTZXE+CiAgPC9BdHRyaWI6QWRzPgogPC9yZGY6RGVzY3JpcHRpb24+CgogPHJkZjpEZXNjcmlwdGlvbiByZGY6YWJvdXQ9JycKICB4bWxuczpkYz0naHR0cDovL3B1cmwub3JnL2RjL2VsZW1lbnRzLzEuMS8nPgogIDxkYzp0aXRsZT4KICAgPHJkZjpBbHQ+CiAgICA8cmRmOmxpIHhtbDpsYW5nPSd4LWRlZmF1bHQnPkJlaWdlIE1vZGVybiBCdXNpbmVzcyBPcmdhbml6YXRpb24gQ2hhcnQgR3JhcGggLSAxPC9yZGY6bGk+CiAgIDwvcmRmOkFsdD4KICA8L2RjOnRpdGxlPgogPC9yZGY6RGVzY3JpcHRpb24+CgogPHJkZjpEZXNjcmlwdGlvbiByZGY6YWJvdXQ9JycKICB4bWxuczpwZGY9J2h0dHA6Ly9ucy5hZG9iZS5jb20vcGRmLzEuMy8nPgogIDxwZGY6QXV0aG9yPti52KjYr9in2YTZhNi32YrZgSDYp9mE2YXYt9mK2LHZijwvcGRmOkF1dGhvcj4KIDwvcmRmOkRlc2NyaXB0aW9uPgoKIDxyZGY6RGVzY3JpcHRpb24gcmRmOmFib3V0PScnCiAgeG1sbnM6eG1wPSdodHRwOi8vbnMuYWRvYmUuY29tL3hhcC8xLjAvJz4KICA8eG1wOkNyZWF0b3JUb29sPkNhbnZhPC94bXA6Q3JlYXRvclRvb2w+CiA8L3JkZjpEZXNjcmlwdGlvbj4KPC9yZGY6UkRGPgo8L3g6eG1wbWV0YT4KPD94cGFja2V0IGVuZD0ncic/Ph1kNg8AACAASURBVHic7N1nYFRV3sfx38ykF1oMAQMIIkWKIKAEsYOKiIiIoICAFGVRXHBdROEBkV1FVlxYqYtIVUGKwLI2VESWKtJCAoSS0EsK6WXaeV4ERmMC0kMy38+rzJ17z/3PEG7O/d1zz7UYY4wAAAAAAECpZi3uAgAAAAAAwNVHAAAAAAAAgBcgAAAAAAAAwAsQAAAAAAAA4AUIAAAAAAAA8AIEAAAAAAAAeAECAAAAAAAAvAABAAAAAAAAXoAAAAAAAAAAL0AAAAAAAACAFyAAAAAAAADACxAAAAAAAADgBQgAAAAAAADwAgQAAAAAAAB4AQIAAAAAAAC8AAEAAAAAAABegAAAAAAAAAAvQAAAAAAAAIAXIAAAAAAAAMAL+BR3AQCAKyMtxSg12Sg7Q8rNMXI5i7siANeCxSL5BUiBwRaVKWdR+XCLfP2KuyoAwPWIAAAASjC3W9q5yaUN3zuVlVHc1QC4XtRralPLR3wUUqa4KwEAXE8sxhhT3EUAAC5eXq60fLZdR+I5jAMozMdXeqKnr6rdwh2fAIB8BAAAUAJlpklLPrYr+SSHcADn91hXX9W+jRAAAMAkgABQ4hgjffeFg5N/ABfkv586lHSc4wUAgAAAAEqcDd85Fb/bXdxlAChB/jPPUdwlAACuAwQAAFCC5GRJv6xxFXcZAEqY1GTDsQMAQAAAACXJzp9dctiLuwoAJdEvP/FsUADwdgQAAFCC7IvhCh6AS5OVkT+KCADgvXyKuwAAwIU7eZSJvEqzgCDpnkfz/zSvXHzuq7V3t/FRYLCUlmK0aVXRoVBwqHTXw/ltHdjl1v7YX+eNqFHXqrqNbSpT3qK8HKOEPW7t2OSSm3yp1MvONAoMthR3GQCAYkIAAAAlhZEMc/+Van7+FjW4wybp/AFAnUY2lSmf/3NCnFunigiG7rjfx9NWVoY8AUDLR3x05wO236xpyQ8Ebrdp4b/tcjFKvFRzMBcgAHg1bgEAAKAEa9G6cJYfFCI1vNNW5PI77stf/s1Cpya8maeF/3bI6ZAqV7OoXpPC26B0cRIAAIBXYwQAAAAl2M23WhURaSlwe8gd9/nIx7fwumXKW2SxSjLS7m0uud3SkQNurVruVIVwi3KyuMUEAIDSjBEAAACUUEcO5A/rb/HQr3l+YLB0W5RNxi0djS94Qp+abORySbJIbTr7Kjg0f/nOn1366Uun9sVwjwkAAKUZAQAAACXUL2tcys3On9SvUpX8id2anbn6H7vVpdNJBU/oc7Oln/7rlDFSnUZW9XvDXx37+KpmPavEvHAAAJR6BAAAAJRQ9jzplzX5s/a1eCj/yQCNomxyu6WN3xc9pf+2dS598qFdsVvccjikm2pZ1b6Hr7q97KegkGtZPQAAuNYIAAAAKMG2rnUpJ0uqXseqNl185esnxWx2KS3l3PfzJx4z+uZzh6aNztO3C53Ky5EqRlp0X7siJg4AAAClBgEAAAAlmMMubV6dPwqgem2rXC5p4w9FP8uvSg2LWrT2Ub2m+bP9O51SzC8ubfg+f/3I6nQLAAAozfhLDwBACbdtvUvZmfk/79zkUkZq0euFlrMoqrVNDzzuo5Ayvy4PDM6fACA3m6cAAABQmvEYQAAArkNtny08HP/H/zg8J/q/5XRIS2fZVS7MokP7zj2T/95ot6JaG5ULs6j7n/0Vv8etgMD8SQSl/CABAACUXgQAAABch+o0KjxIb923FmVnFn2V/uQRo5NHzn8F3+mUFv7brgef8FWNulbVa5K/j5ys/NsGdv5MAAAAQGlmMcYw3g8ASgIj/fONvOKuAqWEn3/+LQEup5R22sice+AASpGnX/RTlRo88xEAvBUjAAAA8EL2PCn5JNcAvI2N2Z8AwKvxZwAASgou2gG4TD5+xV0BAKA4EQAAQAlS7gZSAACXzj+AYwgAeDMCAAAoQWrU4bAN4NL4+Ehlyhd3FQCA4kRPEgBKkOq1OWwDuDS3NrEVdwkAgGJGTxIASpDqdaxq2JxOPICL4+sntXyEuZ8BwNsRAABACXNPGx+FlivuKgCUJG06+yowuLirAAAUNwIAAChh/AOlx5/zk49vcVcCoCRoco9NtzSgywcAkCzGGB4CDAAlUPJJoyUz7MpML+5KAFyv7rjfprvbMPQfAJCPAAAASrCcLOnH/zi0e5u7uEsBcB0JLSc99JSvbqrFlX8AwK8IAACgFEg/Le2PdSkhzq0jB9xyOoq7IgDXWliERTXqWlW9tlVVa3LiDwAojAAAAAAAAAAvQDwMAAAAAIAXIAAAAAAAAMALEAAAAAAAAOAFCAAAAAAAAPACBAAAAAAAAHgBAgAAAAAAALwAAQAAAAAAAF6AAAAAAAAAAC9AAAAAAAAAgBcgAAAAAAAAwAsQAAAAAAAA4AUIAAAAAAAA8AIEAAAAAAAAeAECAAAAAAAAvAABAAAAAAAAXoAAAAAAAAAAL0AAAAAAAACAFyAAAAAAAADACxAAAAAAAADgBQgAAAAAAADwAgQAAAAAAAB4AQIAAAAAAAC8AAEAAAAAAABegAAAAAAAAAAvQAAAAAAAAIAXIAAAAAAAAMALEAAAAAAAAOAFCAAAAAAAAPACBAAAAAAAAHgBAgAAAAAAALwAAQAAAAAAAF6AAAAAAAAAAC9AAAAAAAAAgBcgAAAAAAAAwAsQAAAAAAAA4AUIAAAAAAAA8AIEAAAAAAAAeAECAAAAAAAAvAABAAAAAAAAXoAAAAAAAAAAL0AAAAAAAACAFyAAAAAAAADACxAAAAAAAADgBQgAAAAAAADwAgQAAAAAAAB4AQIAAAAAAAC8AAEAAAAAAABegAAAAAAAAAAvQAAAAAAAAIAXIAAAAAAAAMALEAAAAAAAAOAFCAAAAAAAAPACBAAAAAAAAHgBAgAAAAAAALwAAQAAAAAAAF6AAAAAAAAAAC9AAAAAAAAAgBcgAAAAAAAAwAsQAAAAAAAA4AUIAAAAAAAA8AIEAAAAAAAAeAECAAAAAAAAvAABAAAAAAAAXoAAAAAAAAAAL0AAAAAAAACAFyAAAAAAAADACxAAAAAAAADgBQgAAAAAAADwAgQAAAAAAAB4AQIAAAAAAAC8AAEAAAAAAABegAAAAAAAAAAvQAAAAAAAAIAXIAAAAAAAAMALEAAAAAAAAOAFCAAAAAAAAPACBAAAAAAAAHgBAgAAAAAAALwAAQAAAAAAAF6AAAAAAAAAAC9AAAAAAAAAgBcgAAAAAAAAwAsQAAAAAAAA4AUIAAAAAAAA8AI+13Jnq1Zuk5+v37XcJQAv53A41DSqtkJDAy+rnfSEwzr0/RpZrZYrVBkA/DG7w6Hbej0rq59vsdaRkXZAB/ctktXKtSMA146P7w2q3aBXcZdRqlyzAMAYoz07MtTg1qhrtUsA0IF9W1Uh/Ihua1zrsto5sXWHKn3xvcr6+F+hygDgj61POa6MJ9qobETFYq0j+eQ23eA7RmHlCQAAXDsLv6qiWvV7ymLhAsyVck1HANhsPvLxKd4EG4B3sdmuzGHOYrHI12KVL1e/AFxDPpbr45hjsVjk6yP50o0DcA3ZGHl5xV0ff1UAAAAAAMBVRQAAAAAAAIAXIAAAAAAAAMALEAAAAAAAAOAFCAAAAAAAAPACBAAoUTZtWan/fjtLySknirsUAAAAXIZZC3I1d1FecZcBeJVr+hhAlE5rN/5Xny56X/GHYpWVlaZyZcPV7PZW6t/r7wq/IVKSlJaerE1bVur+lh3l6+t3yfv6dPE4bdz8jSaNXaWwCpWuSP1XqjYAJcvRnEz9bc9mfXXykI7nZqmcr79uLxuuv9ZqrFYVqxZ3eQBw1bz1frbmLzv3iffN1Wz68pMyV72O5wdlyd9feq6T/1XfF4B8jADAZfll+yoNeau99sZv18P3P6vnugxV+A2R+nLlbA0a1kbGGEnSlytna8S7zyorO72YKy7seq4NwNVxKDtDTVct1NT4GLmM0WMR1VUvtIJWnjqsh9f+R58djivuEgHgqikTalGlcKsqhVvldkt79rmVctp4lt1QgWevA6UVIwBwWdasXy63263nnx2uZ596VZLUq+twjf5HT5UJraCMjNNa9vV0Lfvy35KkabOH674WHVSuXLi+/m6uGtZvqVb3Pi1J+nnr91q74T+KatZGUXe08Sz7cuUsWWTR44/2lUWF/yBt2f6jVv74mVLTklS92q3q3OHPKl8uXJL02eIPdPLUIfV57i3999uZit61XlVvrKXunYcoJLis5n7+XqHazu4bQOn12s61OpmXrccrVdfndz6iAFv+n8Ofko7pwf8t1bh92/RMlVqyWCw6lZetafEx2p6WLD+rVXdVqKQ+1esp8Mw2f9+zWYl5ORp9a3OFnhlF9Neda+VwuzX+tntkd7s0ZOc6RfgH6bFKN2ns3q0aUKOB7gqrrLiMVM04GKv47HQF23z1SEQ1dYm8RRZL/rFuf2aapibs1IGsdFXyD9KLNerrtrI3eD7HqsQjWnh0v07l5SjCP1Ddq9ZRi7ArMzoKQOn16ouBevXFQEnS1Dm5+tPrWXrwbl/NnxpaYD2322jeYru+XW2X3S7d18JXL3T3l69v/jEqM8voo09ytXmHU1aLdP9dvurZ2V82W/77xhjNX2rXVz/Y5XBKzRr56IXuAQoN+bU/Z7VKySlujZ2co4NH3Lqvha/69/D3HAfTM9yaMjtPm7c7FRRoUad2fnr84fxjbWycU/+el6eWd/jIapUW/seuKWOCVb4c1ziBcyEAwGUJDsofHvb1D/PUqP7dqlu7mXxsPho19BPPOvEJMUpMOipJ2rt/m+rVuVOp6UlasHSC8hy5ngBgV9zPWrB0gkJCyinqjjbauWuDBr/5iGSxqHnThzX6Hz0L7X/lj/M1ckxX1bipvho3uEcLl32o71Yv0OzJWxUUGKKf1i3Vtp1rdPzUQcUfjFFqWqJ++Gmh9h3YrvdHryiyNgClm8Pt0ooTByVJ/2hwl+fkX5LuveFGxT/8nKoG5XeCT+Zmq/EPC3QyL1utwqvotCNPnx3Zq8+O7NWaezvKarFo5sHd2p+VpqG1m3gCgA/3RyvP7dL42+6RzWLRhP07VCUwRPMO79G+rDQ9GlFNFf0D1fTHz1XGx08PV6yqhOwMPfvzt9qSmqixDe7S3sxUNV31ufytNnWOvEUrEw9r5qHdWntvR91eLlzzj+zVsz9/q9vL3qDby4VrVdJRTY2P0bKotmpXufo1/14BlD4vvZGlqXPy1OYBX1Uob9HAYVlas9HhCQradE3X2k1OPdHGV6eSjOYuylLMHpfGvRUsSXptVLY+mJarurfYVOVGq14bla15i/O0bnlZBQbmn+AH+Fv0xPMZSks32rPfpQXL7MrJNXr1xUA5HEZ3P5GuXXtd6v6Uv+IPudS+Z4amvBes/j0CdPyk0YTpudoe46O1PztlsUjvjwhS+XLF9pUB1z3iMVyWju3+pKqRtRS3b6v6/Lm5HulUQX/5v8e0ZMUU2e3595aNGDJHFc7cr//+2yv0+CO9L6jtBV+Ml8vtUv9ef9e40f/VRxM2KCX1ZIF1Jk7/q6wWqya+94P+OnCyXnlhnI4c26evvpsjSbJY83/FgwJD9PnHcfr4w82yWq1av/krORz2S64NQMl1LDdbOS6nAqw21Q4p3Es8e/IvSSN2bdKJvGwNr9NMK+9+Qj/f/7QeqlhV61JOaN7hPRe0P5sl/zh0JCdTz1Sppdz2/dW1Sm19l3hEmU6HBtVspJlNW+n7u5/QuAYt1fTMCKZRu39WhtOhabffr0mN79OXLdopx+XUu3G/SJKWHjsgSZp2+/2a0eRBfdfyCY2p30Ll/JjLBMDli9vv0r/n5em2ejZ99WkZfTIpVF07+mnBMrti9jiVnOJWo3o2DX4hQEtnltE3n+VfFJq3OL//F3/IpQkf5Soi3KIt35bVygVl1Lebv06nGq3e4PDs53SqUY9O/opeVU7TxuYHB0u+tEuSZn+ep+hdLv2pZ4Bmjg/R9wvL6KYqVr31frbcbiObLb+N1eud+nZ+GeUdDFOVG23X8FsCSh5GAOCyhFWopHlTo7V63Rf6eet32r5zjdZt+lLrNn2pxcsn6aN/bVRgQPAltX3gYIwkqdntrSRJFcpH6Nbad2hb9E+SpOSUEzqVdER+vv6aMG2wJCk1PUmStHPXej31+ABPW21aPSdJqnJjTd1Q4UadSjqi1LREzySFALzH2blJLBaLZ4jpuaxNPi5J6nDjzZ5tHo2oppWnDmvT6VPqUa3uRe37lZq3efbZuOwNssqi12PWaeGxfbo37Ea1iaim1mcmINx8+pQkaebB3Vpy5mTfKovWp+QHoU3LVdSCo/t035qlujussu4Jq6yON9ZU/TIVLqomACjKlmin3G4pNc2o+8sZkqSYPS5J0oZfnOrTNUBvvhKohf+x6y9vZcnhlGw26VRS/jF283anXC7prma+nqv9098PKbQfi0Xq8XT+JID3RvlKkk4muj1tnN3f2RrsDqOTiUbxh9yeNho3sOn+u3yv+HcAlEYEALhsfn7+euj+Z/TQ/c9Ikg4kxOj1UR104GCMVv1vsdq27nHujc90xCXJ5XIWeCsnJ1OS5O8X6Fnm7xdQ6H2r1abAwPw/KIGBIerw2IuqWb1hgbbO3qogSb5+/md2bQTA+1QOCJa/1aYcl1PxWemqEVxwpusdaUm6NbS8fK02pTnzr0IF/+Y2gbP3/ifl5RTY7uwRxRgjVxHHFz+rVWV9f53pOqpCJX3b8nFNOrBTq5OP6ufTpzRu3zY9f1NdfdyklTKd+VfIQnx8FWLL79j2q15P/mcueb1Wq7HK+vrp0yNx+l/yca08dVgjd23SzCat1POmiwsmAOD3MrPyj2N+flJIUP4JfPPbfdT8dh9Vi7QqNs6pOx9Nk9VqUY+n/VWhXMFANS09f3v/P5jg389PCgjI39b/zACms4fQzOz8HwIDfq2h/Zn7/31+cxYTHsagZuBCEQDgkrndbv1t3PPaH79DY0ctV0R4/lWrm6vXV7PGD+rIsX1KT08usM3Zk+4A/yBJUmLyMc97++J3FFi3YngVHT+ZoKPH96vGTfVkjFHCoV2e9yMqVpPNapPbuDW4/wT5+fnLeSZE8LFd/K82gQDgHfxtNrWNuElfHD+gEbs2anbT1rKeuSq/KyNFLVYv1g1+Adr9UDfVCSmnIzmZis04rTqh5SVJsekpkqRaZ24fCDpzvDmWk6XKAcHalXFaTuMutN+iJjG9vVy4lkQ9Kknampqojhu/0uyDezSh4T2qEVxGR3Oz1L9Gfd13ZrRSjsvpCSAsFouejqypF2rUl8Pt0tcnD6nDhq808UA0AQCAy1ajWn7YWKWyVVPH5l9oycsz8vPLP/6MGJutrGzpjVcC9M4bQTp0xKXR//w1GK1ZPX/7ffEuz7JlX9u1ap1DHdr4XdAV+xpV89t48G5fjfxLft8xJ8d4RhScHQXAMwuAC0dchktmtVrl7xeguP3bNOC1+/TR3Le0cNmHen/iS1rx7Uz5+Pgqqln+jPpnbwNY/tV0HUiIUY2b6stisWjjL9/ok4X/0LRZw7UjZq2kX0/E72nxhCRp+tyR2rRlpSZMe9UzB4CRka+vnx5+oKvs9lxNmDZYO2LW6s3RT+nex/z0/erPL/hz/L42AKXfew1aqJyvv+YdjtOdPy7UX3euVf+tPyrqx8XKdjn10s0NFWjz0aCajSRJb8Ss19cnD+qjhFh9fHC3gm2+6nPTrZKkBmeG3L8avVYfJ+xS/20/KvjMFfvzBYtvxqxX2H9n6L24LYpOS1a60y63MSrr66cgHx89Xy2//WExG/W/5GP6v9iNClo+TS9tWy1JarF6kap+PUdLjx3QnsxUZbucMjK68RJvuwKA37o3ykc1q1v10wanps7J1fdrHGr4YKqCa6bo0BGXgs6chK9e79AXX+ap60uZKn9mFMCqtQ7dfadNdW+xafN2l96fkqOvfrDrleFZ+nBGrsqGXtgp+3Od/OXjk/+kgq9+sOuzL/JU/tYUNXwgVW43F26AS0EAgMvyl5cnqcczbygnJ1Mz5o3SB5Nf0eL/TNbN1Rvo/bdXqPqZDmz7Nn1lsVg0ddYwrfj2Y91UtY56PvOm3G6XJn40RDG7N+r5rsMlSQ5H/uQxHdv9Sc1ub6W4fVs16M1HlJaepHui2uevc2aCwUH9x6v1fV20/OuP9OKrd+uX7avUt/tbanVf5wv+DL+vDUDpVyuknDbe10ntK9VQdHqy3t+7TdMSYlTRP1Azbn9QQ2o3kSS1q1xdE267R0n2XD26boX6bV2l6kGh+uqudqp+5taBt+reqZrBZfVT8jENjv6fXrq5oSoF5F+pynO7zlnD0NpN9dSNNTU8dqNu+2G+7l+zVKE+floa1VY2i1W9bqqrkXXv0Pb0JN3z0xd6N+4XPVOllt5r0EKS9NHtD+rW0PJ6cuNXavj9fD3787d6qGJVTW5871X+9gB4A19fi5bODFXT23w0YGiWWndOV26e9NnkUFWrYlPfrv5qVN+mdT879cyfMtX6Hl+9NyxIVqv0UJd0ORwWLZweoia32fTXt7PVtluGXG5p/tQQ3d7wwkZq1q5p04JpIfLxsahttwx1HZCpRvV8tGh6qKxWrvsDl8JirtG4Z2OMPpqwQQ3rtbgWu0MxSM84razsdJUtE6agwMKTvGRmpclqtRV4Lzc3W9m5mapQruI5201OOSE/vwCFFjFb91lOp0OnU0+pfPmISxr+X1RtKB327N2i21uG6rbGtS6rnb1Lv1TFGV8UuIcbpUOey6VTedkq4+t3zn9ftzE6mpOpAJuPwv0Di1zneG6WKvgGeO7Rv1C5LqcS83LOuX9jjI7nZqucr5+CfAoPmc1w2JXqyFO4f2CBRxqidFiXfFz1P5+ishHn/jt5LRzc+4VCHH0UVoFrR94oM8soM8soIrzw5KknTrkVGmJR8Jl79HNyzty3H/jreknJbuXZjW6sZP3DyVfPJSnZLZtNKl+O30FvsmBFVXXus+WSf29QGD0FXDFlQsurzJl7ZIsSEly20LKAgCAFnLlSdi5hZx7Tdz4+Pr6XNaN/UbUB8A7+NluBR/8VxWqx/OE6lS9x6H2Azee8bVssFt0YeO62Q339FOrLo/8AXD0hwRaFBBd9AlapYsET8t+e+J91wxWYpO9KtAGAWwAAAAAAAPAKBAAAAAAAAHgBAgAAAAAAALwAAQAAAAAAAF6AAAAAAAAAAC9AAAAAAAAAgBcgAAAAAAAAwAv4XMudHUv9UcGJx67lLgF4uSOn49XQ9chlt5NiMdrwQAMFBQVegaoA4MLs2R+sepain79+LaVl+mnVlr8oNDS4uEsB4EX2Hokt7hJKnWsaADzY6m5FRUVdy10C8HJbt25VaJmAy26n/K219GjL5ipbtuwVqAoALsz69etl8fcr7jJUpnx9tXmsqcLCwoq7FABeJM+5sLhLKHWuaQDg4+MjX1/fa7lLAF7Ox+fKHOYsFot8fX05hgG4pq7UMexycQwEUBxsNltxl1DqMAcAAAAAAABegAAAAAAAAAAvQAAAAAAAAIAXIAAAAAAAAMALlLgAICUlpbhLAAAAwAWi7wYA14/rNgAYNGhQkcsHDBhQ5PKJEydq375952xv//79Onny5BWpDQAAAAWdqy/2+77bufp4Z61du/aK1gUA+FWxBgCxsbGaPHlyke8NGzbM87PD4VB8fLzcbrdnmcvlKrB+t27dVKNGDTkcDjmdTp0+fdqTONvtdn3++efatm2bcnNzr8InAQAA8C4zZszQ1q1bPa/P9sWk8/fdzvbxcnJyJEnHjh3z/JyRkaHx48crKSmpUF8PAHD5ijUAsNvtSk9PL/K9gQMHSpJ2796tJ598Up999pk6deqk06dPKy8vT61atSqw/rhx4xQfH6/Vq1erc+fOGjdunF599VUtWrRIsbGxWrlypebMmaNt27Zd9c8FAABQ2mVkZCgvL8/z+mxfrKi+myQ99dRTOnHihKeP98477+ill17Sxx9/rG7duikuLk7ffvutoqOjNWbMGG4dAICrwKe4dtyrVy+lpKTo6NGj2r17twYPHqxGjRoVWm/EiBGaMWOGIiIidPDgQT355JPy9/fXjz/+eM62GzZsqFGjRkmSOnTooKVLl6p9+/aKiopSVFTU1fpIAAAApd7u3bs1ZswYzwWW8PBwTZs2zfN+UX03SVq6dGmBdowx6tSpkx544AElJydryJAhmjFjhhYuXKj333//mn4mAPAWxRYAzJo1S9u2bdPXX3+toUOHnnO93NxcRURESJJuuukmVapU6Q/brlq1qufngICAyy8WAAAAkqS6detq1qxZGj9+fJEXVy6m73a2zxYWFqasrKyrVzQAQFIx3wIQHh6upk2bnnedMmXK6PDhw5KkuLg4HT9+/JL25evr67m/DAAAAJencePGRZ7cX27fzWq1ym63X5EaAQAFFdsIAEmKjIxUZGTkedf5+9//rpdeeklVqlRRSkqKbr31VuXl5alt27b6/vvvL3hfrVu31ksvvaTAwEBuAwAAALhM999/f5HLi+q7SVKnTp00ceLEP2y3Xbt26tatmyZNmqSKFSteyZIBwOtZjDHmWuzIGKMNGzaoRYsWl7R9RkaGQkNDPa/tdrv8/Pwuqo28vDxZrVb5+vpeUg0ASp4tW7YoNDRUtWrVuqx29u7dq4oVK6ps2bJXqDIA+GPr1q1T/fr1i/3Yc/DgQYWEhCgsLOyCt7mcvltWVpaCgoJksVguulYApceCBQvUuXNnjgVXULGOALgYv/0DIumiT/4lyd/f/0qVAwAAgPO4nL5bcHDwlS4HAKBingMAAAAAAABcGwQAAAAAAAB4AQIAAAAAAAC8AAHA7xw4cECJiYnFXQYAAAAuQmZmpnbt2iW3213cpQDAdYsA4Iz09HQ98cQT2EbOewAAIABJREFUmj17tl555RXNnTtXkpSbm6stW7YUWj8jI0PDhw+/1mUCKIGOHj2qvLy84i4DAEqtuXPn6oUXXtD8+fP15JNPKi0tTZK0du3aItefOHGi9u3bdy1LBIDrQrEGALGxsZo8eXKR7+Xk5MgYo4SEhEJJ7vHjx+VwOAqsm56ertTUVEnSyZMnlZ2dXWCbxMREnThxosh9uVwurVq1Su3atdOoUaP02WefaeXKlTLGaNOmTVq6dKkyMjLkcDjkdDqVnJwsf39/DRo0yLP/vLw8HTlypFDb8fHxstvtheoBUPqMGzdOsbGxhZZ/+OGHOnz48B+ud9auXbt06NChq1IjAFwpM2bM0NatWz2vc3JyJEnHjh3z/HxWUX03p9OpY8eOScq/ep+UlFRgm6ysLMXHxxe5b5fLVeD1ggUL9Omnn2rUqFHq37+/vvrqK2VkZGj8+PFKSkqSy+VSTk6O3G63Tpw4oW7duqlGjRrnrTktLU3Hjx+XMabQewBQUhXrYwDtdrvS09OLfK93794KCwtTRESEYmJi9PHHHysoKEgDBgzwLBs5cqTq1KmjVq1aqVWrVtq5c6eaNWum9PR0xcXFafTo0WrQoIGGDx+upKQkBQQEKCIiQm+88YZnP+vWrdPixYvVt29fTZ8+XY8++qiqVKmiOXPmKCMjQzNmzFB8fLzq1KmjiIgITZw4UTfffLNee+01DRkyRLNmzVKrVq3UvHlz+fn5yWq16t1331V6erqee+451a9fX7t371ZiYqLWrFlzrb5aANdAjx49NHPmTNlsNklSr169VKZMGUmS2+3W1q1bVbVqVc/6mZmZCgkJ8ayXkpKi8uXLKyYmRuHh4YqIiFBmZqbmz5+vevXqqWzZssX+7G8AOJeMjIwCo5veeecdpaSkqHLlytqyZYvGjBmj2rVrF+q71a9fX71791a1atWUnp6usLAwz8l/VFSUevXqpaVLl2ru3Llq0KCBEhISNH36dM9jBM/23caNG+fZd0REhD799FN16dJFjz76qCRp8eLFio6O1pgxY/T666/rlVdeUWhoqFq1aqXo6Gj16tVLs2fPLrLmOXPmaMWKFapWrZr279+vli1b6rXXXruG3y4AXCXmGnG73WbdunWe1z179jSPP/64adKkienZs6fZtm1bgfVbt25tsrKyjDHGLF682MyePdvY7Xbzww8/GGOMOX78uHnttdeMw+Ewbdq0McYYc+zYMdOuXTtjjDGHDh0yQ4cONdu3bzeDBg3ytDt48GATGxtbZI2xsbHm5ZdfNh06dDA///yzMcaYrVu3mnfffdcYY8zKlSvNsGHDjDHGOBwO061bN+NwOMy9997raWPgwIHm4MGD5r333jP//e9/jTHGZGdnm5tvvvkSvzkAl+OXX34xcXFxl91OXFycSU1NNcYY43K5jMPhMJ07dza5ubnG6XQaY4wZNmyY2bVrl8nMzDSPPfaY+eCDD0zfvn1NgwYNzN69e82zzz5rjhw54llv2LBhpm/fvubDDz80nTt3Nv/73/9MTEyMadeunenXr5/ZuHHjZdcNoGRbu3at59hTnBISEkxSUpIxxphdu3aZnj17mjvuuMO0bdvW9OzZ0+Tm5pphw4Z5+mlJSUmmd+/eRfbdjDHm0UcfNQ6HwxhjzJ133uk5jnbr1s04nU7zyCOPGJfLZYwxZtmyZWby5Mnnrc/pdJqPPvrItG/f3gwfPtzTdpcuXTzrtG7d2mRkZBhj8o/Xe/fuPWfNDz30kHG73cYYY8aNG2f+8Y9/XOY3COBSzJ8/3/N/EVdGsY0AmDVrlrZt26avv/5aQ4cOLfR+WFiYgoKCJEnVqlXT6tWr5XK5tHz5ci1evFi5ubkF1pWk8uXLF/g5MTFRe/bsUXR0tPr37y9JSklJ0enTpwvtLzs7W7Vr19aHH36olJQUtW3bVj/++GOh9apXr15o2W+v8FWrVk2JiYk6dOiQunTpIkkKDAxUjRo1LvCbAXC9W7FihZYvX67Nmzd7rmy98847nvdnzJihfv366YknnpAktWzZUpL06aefFmqra9eueuCBB9SvXz8999xz+vzzz/XII4+ocePGuvPOO6/NBwKAi1C3bl3NmjVL48ePV1RUlKKiojzvne0ThYWFKSsr65x9tzJlysjHJ78bWqNGDc9IKqfTqZSUFB06dEgDBgyQlD9itEmTJuetKTs7W3369FGfPn00ZcoUjR07Vm+++WaBdcLCwhQSElJo29/XnJaWpsjISFksFklSvXr1tHPnzov6jgDgelWstwCEh4eradOmF7SuMUY//PCDGjZsqN69eysmJkb//Oc//3C7+vXrq2HDhp51N23aVOQ+Z8+erfDwcHXq1EkVKlRQZGSk8vLy5Ovre9H3fRlj1Lp1a82bN0/Dhg1TdHS0tm3bdlFtALh+tW/fXu3bt9czzzyjadOmeTqxZ+3fv1+PP/6453WjRo3O2VblypUlSf7+/sxcDaBEady4sSpVqnTedS6l7xYWFqYaNWpoypQpslgs2r9/v0JDQ8+7TceOHfXNN9/IarWqZcuWmjVrliTJarXKbrd7bh+4EDfccIMSExN16tQpVaxYUfPmzVPjxo0veHsAuJ4VawAQGRmpyMjIC14/KipKvXv3VnR0tPz9/RUQEPCH29SrV0+VKlXS888/L5vNpho1ahS4qrZ+/Xp98cUXGjVqlJ5//nl9+eWXSk9P12233aayZcsqKChIGzdu1Jw5c3TjjTdecK0dOnTQ8ePH1aVLF1WuXFnNmze/4G0BlAyPP/64rNbCc6k2atRIq1atUo0aNeRwOLRmzRq9+uqrF9yun58fE4cCuO7df//9f7jOpfTdrFar/vznP+vpp59WpUqVlJOTo0mTJnneP9t3Gzt2rGfZgAED1L59e1WpUkUHDhzQlClTJEnt2rVTt27dCmx/IaZOnarBgwfL7XarXr16ntEAAFDSWYwx5lrsyBijDRs2qEWLFpfdVk5OjgIDAy9qm7y8PBljivzD43A45OvrKyl/CJmvr6/ntZQ/mVdubq7nloQLERcXp9jYWHXo0EG5ubnq1KmTVqxYcVE1A7h8W7ZsUWhoqGrVqnVZ7ezdu1cVK1Y876R8w4cPV/fu3XXLLbeoX79+kvJvO5LyZ/4fMmSIPvzwQ02ZMkXdu3fXvHnz1L17d9WtW1eS1KlTJy1atEj79u1Tv379NGrUKN17772XVTeAkm3dunWqX79+sU8IevDgQYWEhHhutbxYl9J3c7lcys7OLvLq/2/7bmcZY5SRkeGZjPWsrKwsBQUFXdRJ/MSJE9W7d28FBQVp0qRJqly5sjp27HhR9QO4fAsWLFDnzp0J4a6gEhkAlARut1sjRozQwYMHZbPZ9Ne//lX169cv7rIAr3MtA4DfS0tLU2hoqGeUQF5envz9/S9o29zcXFkslgteH0DpVFoCgJJmy5YtGjt2rMqUKaMbb7xRI0eO5AQEKAYEAFdesd4CUJpZrVb97W9/K+4yABSj33fYL+Zk/kKGyQIAro4mTZpo/vz5xV0GAFxxhW9eBQAAAAAApQ4BAAAAAAAAXoAAAAAAAAAAL0AAAAAAgOvS2Sep/JGTJ08qPj7+KlcDACWf1wQAa9eu1cKFC8/5fm5urrZs2XINKwKAS5eTk6M1a9Zo69atxV0KAFxRGRkZGj58uCRpwIABf7j+wIED9e6772rChAkaOHCgZ/natWuLXH/QoEFXplAAKIGKNQCIjY3V5MmTz/l+amqq0tPTCyxLS0vT8ePHZYxRTk6OZ3liYqJOnDjhee1yuQps16xZM7Vp00YOh0NOp1OnT5/2pMrGGG3atElLly5VRkbGlfhoAHDVJCcnq2PHjoqOjtbcuXM1cuRISflB5urVq4vcpm/fvrpGT30F4CVmzJhRKIR0Op06cOCAHA6HZ1lOTo7S09OVmpoqKf9qfXZ2doHtjh8/7tkmNDT0nCfpv+/fpaam6vTp0xo/frzGjx+vcuXK6dChQzp+/LimTJni6evl5OQoJydHqampGjZsmGeZMUYJCQlyu92F6klPT5fdbpfT6bzYrwYArlvF+hhAu91e6AT/rOnTpys6OloOh0MtW7ZU9+7dNWfOHK1YsULVqlXT/v371bJlS7322msaPny4kpKSFBAQoIiICL3xxht66qmnNHXqVFWqVEmStGbNGiUkJKh69eqaPHmy6tWrpyNHjqhdu3Z65JFHNGPGDMXHx6tOnTrq1q3btfwaAJRQPXr00MyZM2Wz2STlD1UtX768YmJiFB4eroiICM+6CQkJkqTq1at71vXz89OBAwd02223KTk5WYcPH1bjxo0922RnZ2vnzp2qU6eOypYt6wk+v/vuOz3xxBPq37+/JOlPf/qT7Ha7fvjhB3333Xee9SXp2LFjioiI0N/+9jdZLBalpKQoJCRE0dHRuvXWWxUUFOTZX0xMjIKDgz11BwYGXrXvDkDJl5GRoby8PM/rvXv3avDgwbrjjju0fft2TZgwQZUrV1arVq3UqlUr7dy5U82aNVN6erri4uI0evRoNWjQQAMGDFBERIRiYmI0cuRI1alTR4MGDdK8efMK7fP9999XnTp11KFDB0lSSEiIjh49qo0bN6p58+YaPXq0JGns2LHavHmzJk6cqDfffFMPPvigGjVqpD59+mjcuHGaP3++evfurbCwMM++P/74YwUFBWngwIGyWCzKyMhQQkKC/vGPf6hZs2bX5ksFgKus2AKAXr16KSUlRUePHtXu3bs1ePBgNWrUyPP+TTfdpH79+kmSunfvri5dumjevHn65ptvZLFY9MEHH8jtdmvHjh3KysrS1KlTJUmvvvqqdu3apaVLl55z3w0bNtSoUaMkSR06dFCnTp00ePBgff3115z8A/hDbrdbbrdbeXl5nitDNptNH3zwgU6ePKlGjRppzZo1euWVV9SyZUv961//0rFjx2Sz2VS+fHm99tpr6tevn+rUqSOr1apJkybJx8dHFStW1LJlyzRy5EjFxMToL3/5i9q0aaOxY8dqxIgRysnJ0eLFi/Xiiy/qxRdf1N13360GDRpoypQpysrK0tdff61du3ZpzZo1Kl++vMaOHavmzZvrpZde0ssvv6xFixapX79+qlq1qm655Ra9/fbbmj59uipWrKjevXurUqVKysnJ0caNG/X222+rdevWxfxNA7ge7d69W2PGjFFsbKxWrlyp8PBwTZs2TSNGjNDHH3+sihUrKikpSYMHD9bMmTNVtmxZjR49WsePH9cLL7yg//znPzp8+LAmT56st99+W08//bQeeOABnThxQuPGjdO77757zn2//vrrBV77+Pho0aJFmjx5skaNGqXu3bura9euGjJkiLZs2aIRI0bI6XTKZrN5+opnJSUlacaMGQoKCtKSJUu0aNEi1a1bV4GBgRo7dqwkqX379lf+CwSAYlRsAcCsWbO0bds2ff311xo6dGih93fv3q0vvvhCxhgdOHBAaWlpioyMlMVikSTVq1dPO3fu1J49exQdHe25EpaSkqLTp0+fd99Vq1b1/BwQEHAFPxUAb7BixQotX75cmzdv9ly5eueddyRJXbt21QMPPKB+/frpueeeU8uWLXX77bfrlVdeUVZWlvr27StJysrK0ujRo2Wz2dSyZUutWrVKfn5+6tq1qyRp9OjRmjdvnm644QZPW0uWLFHz5s0lSR999JGmTJmi2NhYDRw4UA8//LBeeOEFLV26VE8//bS+++473XHHHZ6rYWelpaXpk08+UUBAgBo1aqQ5c+bovvvuU3h4uOcz9OrV6xp9kwBKorp162rWrFkaP368oqKiFBUVJUk6dOiQRowY4VkvODhYkhQWFiZJKl++fIGfExMT5XK5tHz5ci1evFi5ubkXXYvD4VBwcLD+7//+Ty6XSz169FD16tV11113FVjv7Oir3woLC/OMgqpWrZpWr16toKAg1a9f37NOvXr1LromALieFestAOHh4WratGmh5dnZ2frll180e/ZsORwOtWrVSjfccIMSExN16tQpVaxYUfPmzVPjxo1Vv359NWzYUP/85z8lSZs2bSqyzT/i6+tbYE4BADiX9u3bq3379nrmmWc0bdo0+fj8eiitXLmyJMnf399zT+n69es1Z84cBQcHa8+ePZLyh62evXWgcuXK8vPzk5R/a5QkHT16tEA4Wq5cOc/PmZmZqlKlit577z1lZ2fr4YcfLnDrwFm/DTt/287Z4LNy5cpKTk7WsWPHVKtWLc86tWvXvoRvBYC3ady4sedWS0mqWbOmRo0apYiICKWlpeno0aN/2MYPP/yghg0bqnfv3oqJifH05y7U3r17NXnyZE2cOFE2m03NmzdXUlKSJF30vfvGGLVo0UJ//vOf1b17d2VlZWnZsmXq1KnTRbUDANezYg0AIiMjFRkZWWh5UFCQAgMDNWDAANlsNlWsWFGSNHXqVA0ePFhut1v16tWTxWJRvXr1VKlSJT3//POy2WyqUaOG7rzzTnXq1EkTJ04s8IfpfGrXrq2NGzdqzpw56tGjxxX9nABKp8cff1xW6/nnUs3KytKOHTs0b948uVwutWzZ8oLarl27tkaNGqXIyEhlZGR4ggNJmjdvnkJCQtS9e3cFBQXplltuUVZWlvz8/ApNrPVHjDGKiorSCy+8oJ49e8put2v+/Pm68847L6odAN7n/vvvL/B69OjR+tOf/qRq1arpyJEjnmH05xMVFaXevXsrOjpa/v7+fzgy8/3331etWrX0xBNPSMq/Qh8WFqYuXbooKChIWVlZnlGhkZGRGjJkiGd004WIjIzUwIED9eyzzyowMFD33HOPZ/QpAJQGxRoAnM/UqVOVk5NTYBKqpUuXavr06QoKCtKkSZM8V9pef/115eXlyRjj+cPx6aefeq6oSTrnvazz58+XlD8C4Msvv7yk4WcAvNOFzBkSHByswMBA9evXTzabrcDEgOfz9ttv6+WXX1ZkZKQOHTqkMWPGaP369VqwYIHGjBmjnj176rvvvlNWVpaqVaumGjVqyOl0asuWLfr3v/+tm2+++YI/R0REhF5//XV17dpVAQEBatWqFR1eABftpptu0pIlS5SWluaZiFSSZzK/gIAAzZo1S1L+KKiPPvpIUn7/7vd9vrPbnO2nnTVo0CDP6KmzRo0aJYfDIYfDUWBi0wkTJigzM1M+Pj4FJhQ82+Zv227WrJmaNWvmOY5+/vnnkqRnn322yNFUAFBSWcw1ei6UMUYbNmxQixYtLrmNLVu2aOzYsSpTpoxuvPFGjRw5kk4qgPPasmWLQkNDCwxxvxR79+5VxYoVC3RqL0ZmZqZCQkIuervk5GRVqFDBc6zLy8uTv7+/pPwZuH19fQtcMXO73crOzr6ofTmdTn344YcaPHiwJOnFF1/UkCFDVLNmzYuuF8CVtW7dOtWvX/+Sjz1XysGDBxUSEuK5h780++STT7RixQoFBQWpTZs2evrpp4u7JMBrLViwQJ07d+ac7wq6bkcAFKVJkyaFkmAAKAku5eRfUqHO9tmTfyn/Wdm/Z7VaL3pfPj4+Cg8P11NPPSVfX1+1bt2ak38AXqtbt248FQpAqVWiAgAAwNXRvXt3de/evbjLAAAAwFV0/tmrAAAAAABAqUAA8AdSU1P122kSnE6ndu/e7XnEzPUmLy9PWVlZV7TNnJyci55Z/EIlJiZq165dnselFbe8vDzl5ubq9OnTxV0KAAClUkpKynXVdkZGhhwOxwUvB4CSrNQEAIMGDTrne2vXrr3kdocOHaq0tDRJ0po1a9SuXTvNnz9ff/3rXzV69OhLbvdqef/99zVgwIAr2uayZcu0ZMmSAsvWrl2rhQsXFrn+/v37dfLkyfO2abfbNWDAAL3xxhv67LPP1KFDB8XFxV2xmi/Vu+++q507d2rgwIGEAAAAXAVXup9yuW1PmjRJMTExF7wcAEqyYg0AYmNjNXnyZM9rh8Mhp9Op5ORk2e12SfnP0I6Pjy+wXV5enhISEmSM8VyZHjZsmOf9pKQkZWRkSJKOHz+uKVOmFEiEExMTdeLECc/rnJwcSdKxY8c8yxISEgo8EjAxMVHvvPOOli5dqrfeekszZ85UmTJlNHPmTM86Bw8e9OxXUoGfHQ6Hp72cnBzl5OQoNTVVknT06NFCCfPv2/r9ei6XS0XZuHGjMjIylJ6eXuDznd1fTk6O3G635/Pb7XbPzy6Xq8CVfqfT6flufq9Zs2Zq06aNJCk7O9tzwm+32/X5559r27ZtBb4/t9utefPmacGCBZLyH3H20EMP6aOPPtLbb7+tOXPmaMCAAXI6nZ59HzhwwPN5jTEFRjZkZ2fL5XIV+rf7bS1nFfU7NHDgQB04cKDAsszMTO3YsUPNmjVT3759NWXKlCI/OwAAkGbMmKGtW7cWWPbbPpiU//f7yJEjOtdDp1JTUwv1Wdxut44ePVpkn6So/o/D4VB8fHyh0YQX2pc468SJE+cN/4vqmwFASVOskwDa7fYCB/3Vq1dr4sSJuvnmmzV06FCtW7dOc+fOVYMGDZSQkKDp06dr165dGjp0qJo2baq9e/fKz89Pc+fO1cCBAzV//nzNmDFDW7ZsUXJysnr27Kno6Ght3rxZEydO1IgRIzR8+HAlJSUpICBAEREReuONN/TOO+/o1KlTqlatml599VV1795dt912m/bs2aPY2FhJ0qJFi9S/f/8Cj9saMGCA9uzZo9zcXPXs2VO33nqr9u7dq7Zt26pbt27q16+f56kFa9eu1e7du9W3b189+OCDatSokfr06aM5c+YoNDRUO3bs0JQpUxQeHq4ePXrolltuUUJCgp5//nk99NBDGjhwYIH1Bg4cqKlTp6pSpUqeen766SfdfffdqlatmhYsWKB+/frJ6XQW2N8HH3yg0NBQtWrVSjVr1tS4ceNUq1YtZWZmasyYMXruuee0ePFiSdLkyZNVv379Iv/t1qxZo4SEBN1xxx0aPXq0qlWrptDQUD355JNauXKldu7cqbJly6p58+ZasmSJli9frs6dO+uxxx6TJP3888/629/+5mmvXLlymjRpkux2u+Lj4/WXv/xFLVq00Lp16/TOO++oatWqGjp0qKZOnSpJGjt2rJ555hl98sknnn+7du3aFahl1KhRWrp0aaHfIT8/P7311lsaP368cnNzNWjQIEVGRuqbb75R27ZtJUn33Xefxo4de9m/4/BuBw4c0M0331zcZVy0nJwcbd68WSEhIbr99tuLuxwA16mMjAzl5eV5Xv++D9aiRQv17dtXTZo00bZt2zRz5kwFBwd71p8+fbqio6PlcDjUsmVLde/eXb1791ZoaKjuu+8+LVmypECfpFatWnrvvff0448/etrYvXu3XnvtNd11113avHmz5wR/7969F9yXkKQ333xTjRs31vHjx9W8eXP179/fs4/c3Nwi+2YAUCKZa8Ttdpt169Z5Xvfs2dM8/vjjpkmTJqZnz55m27ZtZuXKlWbYsGHGGGOcTqd55JFHjMvlMsYYs2zZMjN58mTz5JNPmpSUFGOMMb/88ot57LHHjDHGdOnSxRhjTN++fc2+fftMXl6e2bBhQ4H3tm/fbgYNGuSpYfDgwSY2NtYMGzbMrFy50hhjzPjx483ixYuNMcbY7XZTp04dc/r0afPmm2+a7du3F/nZJkyY4NnG7Xabdu3amezsbM9+jTFm1apVZsqUKcbhcJiWLVt6lrdv396kp6ebw4cPmwMHDpgJEyaYL774wtPWo48+WuR6RenTp485duyYycnJMW3btjXGmEL7a926tcnIyDDGGLNhwwaTmppqjDFmwIABJi0tzbz++usmJibGGGNMx44djdvtNp999pmZO3dugX2tXLnSTJ8+3cyaNcvMmjXLGGPMTz/9ZIwx5p///KdZv369McaY//3vf6ZFixZm//79nm3tdrt58skni/wMxhjTuXNnc+LECWOMMSkpKaZjx47m9OnT5sUXX/SsM3LkSLNr164C/3a/r+Vcv0NnuVwu869//cvzXQ0fPtzs2LHD8/6TTz5p3G73OetEyfDLL7+YuLi4y24nLi7O8//lQj311FOXvd8L9dVXX3l+7tOnzyX/7v4/e3ceVlW1P378DQeQGQEZjMQo1FQUx9Csb95GS5wDTRRHnDEpb1mZ1yGHFHOKQHFOS03LzMoS0zKnew1JHMEBEDUEkfnA4XD27w8e9o8DB4dScfi8nsfnYU9rrb328Zy11l5DVlaW0qVLFyUqKkqJiIhQpkyZoiiKomi1WmXPnj3Vzi8sLFTGjRv39xIthLihffv23fJ3z52QkpKiZGVlKYqiKCdPnlQGDRqktG/fXnnttdeUQYMGKcXFxdXKYKmpqcrJkycVRVGUL7/8Utm+fbuiKP+/XPbTTz+p4YeEhCiKYlxOMVUmqSooKEgtM6SkpCitW7dWFOXWyhKzZ89W5s+fr+7v3r27kpubq8yePVs5cuRIjWUzIcSdt2HDBimP32a11gNg9erVJCQksGPHDiZNmgRAXFwcjz32GFA+iUtaWpo6lkun09GmTRtKS0txdnYGoGnTppibG49imDlzJrNnzyY7O5vJkycbHTt9+jSJiYlqq252drba1asi3qSkJHr37g2ApaUlbdq0AeDxxx/n5MmTtGzZUg1Pr9fz+++/c/r0aXr16gWAmZkZTZs25eLFi5iZmZm894q4AP7zn/8wYcIEHB0dmTFjBqdPn+bw4cPs2LFDPae4uLjaeVUVFBSwd+9e1qxZA5R3Uzt16hS+vr5G8bm6uqprhBcWFvLWW29hZWXFgQMHyMvLY8SIEXz66af069ePDh061HgPFUJCQpg/fz5vvPEGoaGh1Y536tSJ7777jk8++YSCggImTpxIgwYNKCgoqHbu4cOHeeKJJ9BqtXh4eADg7OyMwWC4bjoq7q9qWmr6DAFs2rSJrVu30rdvX74zxsKdAAAgAElEQVT//nsAcnNzcXJyUsO1s7MjPz8fR0fH6+aBeHiFhoayatUqNBqNuq+goICTJ0/SrFkzo3OLioo4duwYTZo0UT9nhYWFJCUl0bRpU7V3UVFREYmJiTRp0oS6desaDXPx8PBAp9Nhb2/P0aNHefzxx3FxceHKlStERUXh6+uLt7c3H330kfp/piK8xo0bq9+d2dnZmJubc+7cOVq3bo2ZmRnFxcVYWloSFxdHjx491O/J0aNHo9Pp+OWXX4iLizNKf0WaKoZgZWdnY29vT2JiIk2bNsXW1hYo/65MSEhQe0O4uLjc/ochhLhrnnzySVavXs3ChQvp0KEDHTp0AKqXwRRFITIykjp16nD+/Hn69+9vFM6pU6f45ptvUBRFHZZXuZxyM2WS4uJitczQsGFDtWfkrZYl2rdvr/7t7+9PWlqaul1T2axyr1AhhLhf1OocAG5ubrRt29bkMVdXV3x8fIiOjiYmJoYPPviA4OBgGjVqxO+//w7AunXrqo332r9/PwsWLGDx4sVMnz4dQB1X3rx5c1q0aEFMTAwxMTFMnDiRgIAAo+tbtGjB3r17gfIv90OHDgHw+uuvs2LFCnXcPsDChQtJS0ujZcuW6jVlZWUcP36cBg0aYG1trY6DP3v2bLV71Ov1XL58mRUrVtClSxfWrFmDn58fvXv3JiYmhujoaKZMmYKFhUW186ratGkTo0aNokuXLnTp0kWdp+B6oqOjWb58OdHR0TRq1Agob+i4fPkyy5YtY/Dgwde9HsqHNowcOZL169ezdOlSoLzhpPLcAa6ursycOZN3332X1NRUAF566SViY2PVc7Kysnj//fdxcHDAyclJ/eHNyMjAysoKJycndTLGmvKzalpq+gxBeUPN+vXr6dGjh3q9s7Mz6enp6nZGRgYODg43zAPx8DEYDOj1ekpKStDr9eoY0mPHjhEcHMzhw4cZOHCg+nk6fvw4vXv3Zv/+/QwbNoyjR49SUFBA37592bVrF3369EGn03H8+HH69OnDH3/8wciRI/njjz/Yt28fPXr0YPXq1RQUFBAWFkbfvn05dOgQYWFh7Nq1iz/++IPU1FQ2bNjAtWvXGDdunBpvRXhDhgxh9+7d6PV6XnzxRebOnUtcXBxDhw5FURRiYmLYtm0b7dq1Y/PmzRw7dgwo/54oLS1lx44dJCYmsnfvXqM05eTkqJOwhoWF8c4773DgwAHeeOMNrly5Qk5ODoGBgezatYsxY8bwr3/9S/1OFkLc31q1amU0FLFqGSwqKor333+fqKgodQhghaKiIv744w+io6NZsmQJFhbV30ndTJnE0dGRCxcuAOUvcS5fvgxwy2WJinKcoijEx8fj4+OjHjNVNpPKvxDiflWrcwB4eXnh5eVl8pi5uTlvvvkmQUFBeHp6otVqiYqK4uOPP+bf//43UVFRdOzYsdoXcFFREcOGDaOoqIiXX35Zjeedd95h7ty5eHp6MmTIEDQaDT4+Pjz11FNG1w8bNowRI0awZ88esrKy8PX1Bcp/SObPn8/AgQPx9PTk6tWrdO7cmdDQUAwGA+PHj2f37t1kZGQwceJE6tSpQ3h4OH379qVRo0aUlJRUG09vYWHBr7/+ys8//8yZM2eYNWsWTZs2ZdSoUcTFxZGZmUloaKjJ815//XU+/fRT9Yf3m2++4auvvlLzo1WrVixdurTGyQIBOnfuzJAhQ3BwcDCasC8oKIjNmzfj5uam7ouKimL79u0AeHp6EhgYCJRX7keOHEndunVp2LAhAC+++CJjx47FxsZGfSsA8Mgjj/DII48A8PbbbzN16lT69OmDs7Mz2dnZrFy5EgsLCxYsWMCIESPw9PQkPT1dHav3wgsvEBoaiouLi8llCaumpabPUMU9VtW2bVuOHTvG008/jaIo2NjY3LAHhHg4bd++nW3btnH48GHGjBmDh4cHs2bNYvr06Xz++ee4urrSv39/9Y3SjBkzWLduHfXq1SMsLIyBAweyaNEinJycGD9+PN27d6ekpISpU6eyZs0a3N3dCQkJYc2aNTRr1kydawPgypUrrF69mieeeILhw4fTs2dPfvzxR9asWVOt11Pl8IYOHUrv3r159tlncXBwYNasWWra/vjjD6OVVCoaBk+cOEF4eDgvv/wyI0aMYOvWrQQFBREXF6emqXJlPjc3l/Xr12NtbY2/vz9r165FURTefPNNXn31VcrKymjSpMmdfjxCiLukc+fORttVy2BNmzYlIiICX19f8vLyeO6559RzbW1tsbGxYcyYMWg0Gtzd3U3GUblMUlJSwmuvvcauXbvU4zNnzmTs2LE8+uijZGdn07RpU4BbLkucP3+e4cOHk52dzYABA4zmKhg2bFi1spkQQty37tZYg6pzANwsvV6v5OXlqdvbtm1TTpw4oSiKohw7dkwJDw+vdo1Op1O0Wq3RvorxZIqiKMXFxdWOV5Wfn1/jeJO8vDyltLT0pvaXlpbeMK6ioiJFr9dXC6vqvsrnlZSUXDfMm6XVaqvd55IlS9Tx/Dercv4qSnke63S6G16n1+uV3Nxck8dMjXk0lVc3SkvVz1BNioqK1DHbv/zyi9F4QHH/upNzAPTt29fo/3y3bt2Mjr/00kuKoijKM888owwbNkz9N2TIEEVRysftDxw4UPnwww8VvV6vBAYGVot3586dSnR0tLr98ssvGx2viLPynCMVn+Oq4fXs2VMpLS01Ojc2NlbZsWOHup2fn6/eU2FhodKpUyclIyNDSUxMVGbMmFEtTZXDqzznQXJysjJp0iRlwoQJSnJyslGemPr+FEKYdi/OAXA9Vctger3+umWWoqKi64ZXtUxSU1g1/c7fSllCq9Vet+xiqmwmhLizZA6A269WhwDcDI1GY9QNu1OnTsybN4+hQ4fy6aefmhwPb2lpWa1nQMV4MoA6dercsOuWvb19jW9/HRwcTHZVM7XfwsLihnHZ2NgYjSGuCKvqvsrnWVlZXTfMm2VtbW10n1u3biUtLY1nn332lsKpnL9QnseWlpY3vE6j0dQ4xr7yePwKpvLqRmmp+hmqiY2NDQEBARw6dIg1a9YwYsSIG14jHm7dunUzmofExcWFM2fOAJCWlkZycjIAjRs3Ztq0aSxfvpwFCxYwZswYzp8/j5ubG2vXrsXGxoaDBw/i5ubG6dOnAbh27RpTp06tFmdhYSH//e9/AYyWN7WwsDDqyQMYhZeVlVXjfSiVludat26dunqJra0tvr6+FBYWYmVlZbLnzfUoisLLL7+sDkc6efIk+/fvv6UwhBD3l6plMI1Gc90yi42NTY3HTJVJagqrpt/5WylLWFtbX7fsYqpsJoQQ95taHQLwd7i4uLBy5craTsYDq2fPnvTs2bO2k1FrIiIiMDMzIyYmRsb3iRsKCQkx2p45cyYjRozAy8uLq1ev4u/vD8D06dMZN24cXl5epKWlMWfOHDw8PJg8eTLOzs6cPXuWUaNGMX/+fIYMGUL9+vXJzMwkMjJSbVCo4OzszOLFi7GxseHChQvMmzcPgO7du9OvXz91mAughufu7s6FCxfULrCmzJs3Dx8fHwYPHsygQYOIi4ujsLAQb29vfHx80Ov1xMfHs2zZslta2vDVV1/l0qVLBAUF4eHhwXPPPSdDa4QQN+VhL5MIIcSdYKZUfvVzBymKwsGDB+nYsePdiE4IIQCIj4/HwcFBnejy70pOTsbd3d3k26Sqrl27ps64X9nVq1dxcXExqgDn5ubi6OhotO/q1as4OztXW+UEyick3bx5Mzk5OTg6Ohqdk5+fb7L30vXCq1BaWopGo1HPyc/Pr/Ymz2AwUFRUVK2XzfUkJydz/PhxevbsiV6vJzAw0GgmbSHE9e3fv5/mzZvf1HfPnZSamoq9vT2urq61mg4hxMNl48aNBAcHy8uD2+i+6wEghBD3OlOVf8BkwdlUof56Bez69esDULdu3WrHauoCezMF9qrdXk2FZW5ufkuVf4AnnniCVatW8eWXX6LX65k2bdotXS+EEEIIIW4faQAQQoj7yJIlS2o7CbfE3NxcXXFACCGEEELUrnt+EsA7pfLkWTeSk5NjNElWfn4+paWl/yj+2xGGEEIIIYQQQghxs+6LBoB9+/apf589e5aMjIx/HOaYMWNu+txJkyaRm5urbkdFRXH8+PF/FP/tCEMIIYQQQgghhLhZtdoAcOLECT777DOjfYqikJ6err5xz8/PZ+HChWRlZaHVatm0aRMJCQnqcld6vZ5z584ZvU3XarWUlJSQnp5uFHZpaSnnz5/HYDAY7TcVBkBKSorRslplZWVGx//66y+uXbt2U2FlZmby119/1ZgXqamp5OfnG+3LyckhLy/P6L4URSElJaXaPQghhBBCCCGEENdTq3MA6HQ6owpuTk4Ow4cPp02bNiQkJLBq1Sp+/vlnEhMTmTNnDl27dmXnzp0cO3YMJycnXF1diYiIoH379vz5558sWrSI+vXr88ILLxAQEICVlRXm5ubMnj2bU6dOMXHiRJ5++mkOHz5MYWEhUD5DddUw6tWrx4ABA2jZsiWnT5/mxIkTAERGRtKkSRMA3n//fVq1asXly5cJCAhg1KhRJCcn8/bbb9OxY0f279/PrFmzaNGiBZMnTyY/Px8LCwvKyspYuHChes/FxcWEhobi6+tLSkoKQ4YM4aWXXiI2NpbExERKS0vp1KkTAwYMYOjQobi6uuLh4cHx48dZuXIltra2d/GJCSEeBBUNiT4+PgCcO3eOM2fOEBAQ8LdnGs/Ly0On01GvXr3bmdQaJScn/+OVHao6d+7cLS1xeCddvHiRevXqUadOnTsS/rlz53BycsLS0hJHR8c7EocQQggh7kHKXWIwGJT9+/er24MGDVK6deumtGnTRhk0aJCSkJCgpKamKidPnlQURVG+/PJLZfv27YqiKErfvn3V6xYsWKAcOHBAURRF6devn5KRkaEoiqJkZmYqAwYMUEpLS5X/+7//U88PDw9XUlNTlaCgIOWvv/5SFEVRUlJSlNatW9cYxsKFC5UtW7YoiqIoOp1OadKkiXLt2jU1zNmzZyvz589Xt7t3767k5uYqwcHBahzZ2dlK7969lT///FMJDw9Xz/3www+V33//XZk9e7Zy5MgRZdGiRco333yj5tGrr76qKIqi/PTTT+o1ISEhiqIoyosvvqgUFhYqiqIoW7ZsUdasWXPzD0CIh9Qff/yhJCUl/eNwkpKSlJycnNuQouoKCwuVcePG1Xj8xx9/vK3xabVa9Xtl8eLFysiRI5Xo6GjllVdeUVJSUv5WnD/++KMSGxt7y2k5ceKEkpqaekvXaLVaxdXVVf0tuF369OmjKIqiREZGKsePHzd5zt99Frd63bvvvqskJyffkXgyMzOVkJAQ5fjx48rbb799y3GIu2vfvn137LvnVqSkpChZWVm1nQwhxENmw4YNisFgqO1kPFBqrQfA6tWrSUhIYMeOHUyaNAko7wYfGRlJnTp1OH/+PP37979uGGlpaUyZMkXdtrOzA6BBgwbqPm9vbzIzMykuLsbDwwOAhg0b4unpWWMYSUlJ9O7dGyhfGqtNmzbV4m7fvr36t7+/P2lpaWi1WjUOZ2dnDAYDp0+fNjq3Q4cOnDx5Ut0+ffo0hw8fNloXu7i4mFOnTvHNN9+gKArnzp0Dypfyqnjj7+3tza+//nrd/BFC3FmhoaGsWrUKjUYDlE8u6uzszLFjx2jRogUGg4GEhATc3NyMvpcuXrzI1atXadmyJdnZ2bi4uPDBBx8A5cOIjh8/ToMGDXBxcSEpKYnY2FiaNGmivrFPTk6mpKQEPz+/W4r3r7/+4vLly2pPJoCvv/6a3bt3A9CuXTt++uknevbsSVRUFL6+vnh7e5Odna1+Z5aUlKDVatVlCE+fPo25efXRZDWl8fjx47i5ueHh4UFBQQEbNmygWbNmODk54eTkRFJSElZWVjz22GMoioJWq63W02nLli2Eh4ezatUqOnToUC0PfH19Abh06RIeHh7Y29uTkpICwGOPPUZeXh4ajUb9zcjNzTVaBnHw4MHqW/HK6bly5YpRvlhZWQHlQ7wiIyPp2bMnHTt2vO4zbNiwIVevXsXNzQ0o7/lmY2NDnTp1MBgMHDlyxOiZARQVFXHs2DGaNGmi9tDIzs7G3t6exMREmjZtiq2tbbXPytdff83p06cZP368eq8A0dHRjBo1imbNmnHx4kX1MyiEEEKIB1+tDgFwc3Ojbdu26nZUVBTvv/8+jz/+OFFRUep+c3NzdDodVlZWWFpaotVqgfL1padNm4aHhwe5ublcvHjRZDyKouDo6MiFCxdo0KABSUlJXL58ucYwfvvtN/bu3Uv//v0pLi7m0KFD1cLcu3cvzz77LIqiEB8fz7vvvouTkxNpaWl4e3uTkZGBlZUVfn5+LFq0iIEDBwKwZ88egoKC2LVrFwB+fn7Ur1+fnj17oigKhw4dwmAw8Mcff7BmzRpKS0t54YUXarwvIcTdZzAYMBgMlJSUoNfrAdBoNHzyySekpqbSqlUrHn/8cYKDg3n22WdJTU0lICCAwYMHs2zZMn777TeaNWumDiWaOnUqEyZMYMOGDYwYMYInn3ySffv2MXv2bH777TeSk5PZsmULEydO5M0330Sj0eDs7ExsbCyLFi26qXjXr1/Pjh07aNeuHf/5z3/UCm7Fd1RYWBjt2rWjXbt2/Pjjj6SmprJhwwbCwsIYN24cmzdvBiAxMZG4uDgmTZpEeHg4jo6OWFlZ8eOPPzJ8+HCAGtOYkZGBv78/e/fuZfz48Tg7OxMfH8/ly5fx8fFh//79XL58mZycHDp16kSTJk3YsmULc+fONcr/LVu2sH79el5//XWKioqwtbU1yoOMjAzmzp1LQEAAY8eOZeXKlVy6dElN02uvvcbKlSuJjIwEICIiwiiOBQsWMGDAAHbs2GGUHjc3N6N8qVOnDgsWLCArK4u33nqLJ554AuC6z3D48OG89957LF++HIDly5fzzDPP0KJFC/r27csLL7zAiRMnOHjwIMOHD+f48eO8/fbbdOnShblz5zJlyhRatmxJWFgYDRo0wNfXl+nTpxMbG8svv/xi9Fnp3bs38fHxjB8/Hn9/f0aOHEmdOnXYt28fH374IQBdu3bl+++/V3+jhBBCCPFgq9UGAC8vL7y8vNTt3r17ExERga+vL3l5eTz33HMABAYGEhISQlRUFC+++CJjx47FxsaGGTNmMHr0aLy9vUlPT69WSKxs5syZjB07lkcffZTs7GyaNm0KYDKMYcOGMWLECPbs2UNWVpb6NikyMlIdc3r+/HmGDx9OdnY2AwYMwM7OjgULFjBixAg8PT1JT08nJiaGRx55hFatWhESEoJGo6Fly5a0b99ebQAYNmwYo0aNIi4ujszMTEJDQ7G1tcXGxoYxY8ag0Whwd3e/I/kvhPh7tm/fzrZt2zh8+DBjxozBw8NDXes+NDSUl156icWLFzNy5Ei6d+8OQI8ePXj99dfZvHkzP//8M1DeE+rMmTNGYVdUXocNG0Z+fj6jRo1iz549TJw4kaNHj6oNDVD+vbZ3794bxhscHMyaNWv46aefMDMzo2nTpqxduxaAxYsXs3HjRgYNGoSnpycff/wxr776KmvWrGHy5Mk15sHRo0exsLBg5syZQHnPgIr9NaWxf//+/Otf/yIsLIyBAweyadMmXnnlFVq1asVTTz3F8uXLGTt2LC1btuTIkSO0adOGgIAAo3hTU1Nxc3PDxsaGXr16sWXLFrXyWpEHcXFxtG/fnhkzZgDQunVrxo8fT2FhIcOHD2fixImcO3eOkpISioqKMDMzMzl3wYkTJ6qlp3K+REVFkZSUxOLFi9U3+jd6hjk5OSbzc8WKFYSFhdGjRw8AOnXqBJT/Rq1bt4569eqp+fb111+Tm5vL+vXrsba2xt/fn7Vr1zJx4kQ1ngpt2rRh8uTJjB49mscee4zAwECjeQXatm3LqlWranzOQgghhHiw1GoDQFUdOnTg66+/pqysTO1aCeWFxh49emBra4u7uzvff/895ubmWFpaqgWhyhNXrVu3Tv27ckFo27Zt5Ofn4+DgoO5r2LChyTBWrVpFQUEBdnZ2mJmZATBhwgQ0Go1aQCsuLkaj0ahdR+vVq2cyrFGjRjFkyBAMBgM2NjYA6rAHgJUrV5Kfn4+tra3alTgmJgatVqueD7Bhwwb174o3dUKIu6979+50796dfv36sXTpUiws/v9XaUX37bNnz3LgwAG2bdsGgJmZGRkZGUYNeo0bN67WABAZGcmHH36IXq9n9uzZRsfOnj1LfHy8+qa9sLCQp5566obxXrx4kfr166vfZa1atVIbAHJzc+nXrx/9+vVjy5YtvPfeeyxatOiGeXD27Flatmypbrdq1Yq8vLzrprF+/foAanf3qubOncu8efOYM2eO0Xd3ZatWrSInJ4epU6eSl5fHkSNH1AaAyl3nK/994MAB1q5di52dHadPnwYgKCiILVu2kJWVxaBBg0zGdaP0jB07lq5duzJ16lScnJz497//jbOz83WfYcUzqOrs2bN069ZN3fb39wfKh4tU/r2oGHpRt25drK2tgfJ8vXr1arUwL1y4wNy5c7Gzs1MbEfLy8oyGVNStW9domVshhBBCPNjuqQYAKO9GW1EJrqzy+MWqsyLfyqzVlSv/NwrD3t7eaLtyIR9QC183E9aNZnI2la7KlX8hxL2nW7duJse/Q3kFzt7enuDgYKB8+M8TTzxBXl4e6enpPProo6xYsUKtFEP5UqOnTp0iOjqaAwcOsHTpUj744AN1WdEWLVrg5+fHp59+CpRXbFu3bm00H4ipeH19fbl06RLFxcVYW1urPZAAevXqRVxcHBqNhrZt26oNBxYWFur55ubmFBYWGlWgW7RowUcffcSQIUMA2LVrF+3bt7+pNFZmZWVFUVERADt37mTmzJlotVoGDhyoDjuooCgK+/btY8GCBeq+qVOnqvOkmFJYWMjRo0dZt24dZWVl6pv1Pn36EBISgpmZGePHjzd5ran0VM4XKJ9TICoqipMnT/LXX3/h6Oh43Wfo4OBARkaGGsfp06d55pln8Pf3Z/fu3fj4+FBaWsrevXt56623aNy4MdOmTcPLy4v8/Hw1/6uqGBJWeQnay5cvM2nSJKOedlXjz8rKkvH/QgghxEPknmsAEEKI+0VISEiNx0JDQxk9ejS7du3i6tWraoV82bJlTJw4Eb1eT/v27Y26hGs0Gv73v/+xc+dOzp8/r05Q6u3tTXh4OEuWLMHX15eQkBCsrKzw9PSkY8eON4zXzMyM999/n549e+Ll5YWlpaXaqBoREcFrr72Gj48PSUlJ6tv/ih4OUVFRfPjhhwQFBalDoOrXr4+vry8tWrQgKCgIS0tLtdeWr6/vDdNY2fPPP09YWJhaoR4wYAB6vZ7OnTtz4MABNm7cqC6d+ssvv/Dcc8+pEwtCeQ+r63Vht7Ozw8bGhrCwMDQajTpRq5WVFY8//rhRA4wpldNTNV8qV6wrhpUBN3yGQUFBBAcH4+rqSn5+vvrcwsLC2Lt3L9nZ2epyhNOnT2fcuHF4eXmRlpbGnDlzrpveyvFU9LyozMzMDFtbWwwGA+bm5hw4cMBoolohhBBCPNjMlLs0k5yiKBw8ePC6BUEhhLjd4uPjcXBw+MdrxicnJ+Pu7n5LPY6gvIu9jY2NWkH+7LPPGDRoEHZ2dnzxxRcUFxczdOhQo2sKCwvVSU8rh1MRt1arpaysrFovpevFC+UrDBQVFVVb991gMJCTk1PtTXB+fj729vaYmZlRWlqKTqcz6o0F5TPUm5ubV+sRdTNprFBcXIyZmRl16tSpFk9JSckNe1DdjIKCgmppGTVqFLNmzbruG3BT9105X2pyo2do6njFOQ4ODtV6lly9ehUXF5frxmkqHlMWLVrEk08+ySuvvEJQUBCrVq26qeckasf+/ftp3rz5LX/33G6pqanY29vj6upaq+kQQjxcNm7cqL7MELeH9AAQQog7qGqhPSAggNDQUGxsbHB3d2fevHnVrqlaya4azs0MDzJVWbCwsKhW+YfylVZMVYIrD02ytLSsVlkFqi3RdytprFC58aBqPLej8g/Vh3RNnz6dVq1a3bD7u6n7rmkoWWU3eoamjlc9p7JbqXTdqKI4fPhwRowYgaurK61bt5bKvxBCCPEQeegbALRaLWZmZmoBVKfTodPp/lGB6HaEIYR4MLVt25YtW7bUdjIeehVd8x9GdnZ2LFu2DCsrK3WyQSGEEEI8HEzPXvUQ+fbbb9mxY4e6HR8fr67P/HfdjjCEEEKIO8XOzq7GXh1CCCGEeHDVag+AEydOsGfPHsaMGQOUj7U0MzOjsLCQoqIio8mZFEXh4sWLeHl5qWNAioqKyM/PVyd1gvIlk9zd3dVCjV6vJy0tjQYNGhgVdDIyMqoVfMrKytS/8/PzycvLM5rkqaawCgsLuXLlCj4+PibvMzMzk7KyMjw9PdV9Op2O7OxsdV/Fkn+XLl3C2dlZVgAQQgghxD0jNzeX3bt339QQGCGEuF2Sk5NrOwkPnFptANDpdOTl5anbv/76K5GRkTzxxBPY2tqi0+lYtGgROTk5DB8+nDZt2pCQkMCqVas4c+YMM2bMwNvbGwcHB6ZNm0Z4eDgODg4cPXqU6OhoiouLiYiIoH379vz5558sWrSIBg0a8O6771JSUoLBYCAhIYG33nqL/fv3s2XLFoKCgti0aRMnT57ExcWFrKwsli1bxpkzZ3j77bfp2LEj+/fvZ9asWbRo0YKtW7eyYcMGmjVrxpEjR9S1tStMnjyZrKwsrK2t8fDw4L333uPw4cPMnz+fRo0aUVBQwCeffMKsWbPIzs6mfv36xMfHM2fOHBo3bny3H4kQQgghRDWOjo506dJFJgEUQtxVJSUltZ2EB06tNQAMHjyY7OxsLl68yKlTp4iIiBQLQp8AACAASURBVADAxcWFqKgoAD744AMOHjzII488wkcffcSTTz7Jhg0b2LNnD1lZWXTr1o1Bgwaxd+9eANLS0li3bh25ubmUlpYyZcoUVq5cibu7O1lZWURERDBx4kS0Wi2LFy8GYNiwYQA8/fTTPP300xw8eJB69eqxdOlSAGbPns3PP//MypUriY2NxcPDg2vXrjF8+HA2bdrEZ599xo8//ohGo+GXX35h8eLFvPDCCwAcPXqUwsJCYmJiAHjrrbc4efIkZWVlxMTE4OTkxNixY8nLy0NRFF5//XX+9a9/cfXqVd555x1WrFhx9x6IEEIIIUQNzMzMZNiIEOKu02g0tZ2EB06tNQCsXr2ahIQEduzYwaRJkwCIi4szWo84ICCAU6dOUb9+fSIjI6lTpw7nz5+nf//+hISEMH/+fN544w1CQ0MB+M9//sOECRNwdHRkxowZpKWlGU30ZGdnR1JSUrU4qqp6/MSJE2i1WnWogbOzMwaDgezsbBo0aKB+MDt06MDKlSvVBoDTp0+TmJjIqFGjAMjOzubatWsUFxfz1ltvYWVlxYEDB9ReEA0aNADKZ3suLCz8hzkshLjfnTt3Tl0PvqqMjAzs7e2rzSZf0/5bCftm3WxcQgghhBDi3lCrkwC6ubnRtm1bo30Vb/OhfEhAy5YtiYqK4v333ycqKoquXbsCsG/fPkaOHMn69etZunQper2ey5cvs2LFCrp06cKaNWt44oknmDZtGjExMXz88ceMHz8ePz8/fv/9dzWOPXv2VEtX1eN+fn44OTmRlpYGlBd6rayscHV1JT09ndLSUgB2795Nq1at1GubN29OixYtiImJISYmhokTJxIQEEB0dDTLly8nOjr6H69NLoR4sBQVFREeHg7AO++8U+N5n3/+OYmJiTe9v6rrhX2zbjYuIYQQQghxb6jVOQC8vLyMJtkDKCgooH///lhaWuLj40ObNm3Q6XRERETg6+tLXl4ezz33HK6urowcOZK6devSsGFDLCws+PXXX/n55585c+YMs2bNIjAwkNGjR+Pt7U16ejpz587l8ccfx8fHhwEDBgDlkwsCHDhwgG+++YbevXtjb29P3759sbOzo169enTu3Bk/Pz9GjBiBp6cn6enpxMTEYG5uzvTp0+nduzePPPKI2rX/8OHDADRr1gxPT0+GDBmCRqPBx8eHp556is6dOzNkyBAcHBwoLi6+u5kuhLhtQkNDWbVqlcnuaQaDgRMnTvDII4/g4uJCRkYGbm5umJuXt7teuXKFevXqARidZ2trywcffFAtvOzsbC5dukSzZs3UMCqutba2Nvk2v2KeEzc3N7WHUUFBgbpEaWlpKYmJiXh7e6tpqUhbSkoKrVu3Vrv7VoRVr149vL29byougJSUFAAee+wx9T7s7e1JTEykadOm2Nra1pzBQgghhBDitjJTKmrAd5iiKBw8eJCOHTvWeE5cXBwpKSkMHjyY0tJSo5nwy8rKKCsrw8rKyuiayoVZKJ9N38rKyqhAnpubi5OTk9F1xcXFaDQao7FspaWl6nZZWRklJSXVCqemwiorK6OwsBBHR0eT91VSUoKiKFhbWxvFX6dOHXVFAyHEnREfH4+Dg8M/7m2TnJyMu7s7Tk5OGAwGDAYDISEhrF27FgsLi2qNAEOGDMHf35/4+HjCwsLUinZgYCAAffr0YcuWLdXO69ixIwMGDGDDhg28/vrrbN68mQMHDhAVFUW7du04cuQIa9asITIykm+++YauXbuSnZ2NjY0NM2bMIDIykmeeeYYWLVoQHBzMs88+S2pqKgEBAfTv35+uXbuyc+dOevXqhaIovPjii+zdu5eBAwcSGBjIl19+yfbt2+nYsSPfffcdq1evxtHRkb59+/L8889z5swZHnvsMd55553rxjV48GAWL17MpUuX0Gg0ODs7M3HiRPr06UODBg3w9fVl586dxMbG4u7u/o+ejRAPsv3799O8efNqZY+7LTU1FXt7e5kEUAhxV23cuJHg4GCpM91GtdoDoCp7e3tcXFywsLDAwsI4aRqNxuRbtsqVf8Dk8nmmfjQrV8YrVG4M0Gg0Jt9MmQpLo9HUWPkHqFOnzk3FL4S4P2zfvp1t27Zx+PBhxowZg4eHB7NmzVKP6/V6RowYQUBAANeuXePdd99lwYIFjB49msDAQH799Vc6d+5s8jxTjaQ2NjZER0djaWnJ5MmTuXDhAgC9e/fm7bffBmDQoEHqMCWAFStWMHLkSLp37w5Ajx496NevHzt37gTKGzynTZtG27ZtGTlyJF27duW1115jxYoV/Pzzz5ibm/N///d/fPzxxzz++OMMHTqU3r17AxAcHExWVtYN42rdujXjx4+nsLCQ4cOHA+WNqOvXr8fa2hp/f3/Wrl3LxIkTb9uzEUIIIYQQNbunGgA6dOhQ20kQQogb6t69O927d6dfv34sXbq0WoNlaWkpn3/+OZ9//jlWVlbk5eXh4OBA3bp1uXz5MuvWrWPevHkmzzPlr7/+Yv78+Tg7O3P48GEGDx4MQMuWLdVz/P39OXfunLp99uxZDhw4wLZt24DyGbzz8/PVxkdzc3NatGgBlDd+2tracu3aNR555BF1iIGfnx8XLlxAURS150JFXBVd+68X14EDB1i7di12dnacPn0agLp166ppqF+/PlevXr21zBdCCCGEEH/bPdUAIIQQ95Nu3boZjcevsHv3blq3bk1YWBipqanqG+7hw4czf/58LC0tqVu3Lj/88IPJ86paunQp33zzDVA+tKByPC+99BJQPoHqgAED1DlI/P39sbe3Jzg4GCif0NTNzU291mAwsGfPHl5++WXy8vIoKSnBxcWFy5cvo9VqsbGxUSdB9fHxIS4ujhEjRmAwGDh48CDjx49XJ1E1FZetrS1Hjx5l3bp1lJWV0alTJ5P3dpdGoQkhhBBCCKQBQAgh/raQkBCT+zt06MDAgQP5888/sbGxwcXFBYBWrVoxevRoFi5ceN3zqnrhhRd44403qFu3rtESoVeuXGHgwIEUFBTQtWtXo7H0oaGhjB49ml27dnH16lWCg4PR6XQ8//zz/P7773h4ePDFF1+wadMm0tPTmTFjBmZmZsyZM4devXrx6KOPUlxczIoVK7CysuLNN99k8ODBZGVlMXbsWBwcHK4bl52dHTY2NoSFhaHRaNRlVIUQQgghRO25pyYBFEKI2+1OTAJ4s6pOUvpPzjM1wSmULxtobm5e47wiubm52NjYqBOolpSUGM1Lkpubi729vVG4ZWVl5ObmVmuQqBrWjeK62XsTQtRMJgEUQjzMZBLA2096AAghxB1ysxXfmznP1ASnwA2X0ataaag6KWlNE5ua6o1wowqIqeNS+RdCCCGEuHdUH7wqhBBCCCGEEEKIB85d7QGwZ88eLl26dDejFEI85M6fP88rr7xS28kQQgghhBCi1t3VBoBnnnlGlvoTQtxVR44cqXF8vBBCCCGEEA+Tu9oAYGFhgaWl5d2MUgjxkLOwkKlOhBBCCCGEAJkDQAghHhjnzp3j559/Jjc3t7aTIoQQQggh7kHSACCEEHdBcXExv/7663XP2bFjx98Of8mSJcydO5dz587Rt29fUlNTrxvm/PnzOXHixN+OTwghhBBC3H+kAUAIIf6m0NBQysrKTB4rLCzkyJEjFBcXU1ZWxi+//MK3337LX3/9BZQ3CCQkJFBcXAxAUlISsbGxnD9/HoPBQGZmphpWTk4OJSUlAGRkZHDs2DEURQGgoKAAgK+//pqYmBhGjRrFRx99xE8//cSVK1eIiorizJkz6HQ6srOzKS4uJikpicGDB9OoUSO0Wi1arZa0tDSSk5ON7uHixYscPXoUgOzs7NuYc0IIIYQQojZIA4AQQtwig8GAXq+npKQEvV5frRGgoKCAvn37smvXLvr06UNeXh47duwgMTGRvXv3cu3aNfr168f+/fsJCQkhMzOTX375heTkZLZs2UJeXh7vvfeeGt7y5cs5cuQIhw4d4s033+Tbb79l3Lhx6HQ6evXqBYCfnx+LFi2iqKiIdu3aMWLECP744w9SU1PZsGED165dIywsjPDwcI4dO8aCBQs4e/Ys+/bt4/XXX+eLL74gOjqaBQsWALBs2TLeffddtm/fTmBgIJ988sndy2AhhBBCCHFH3JOzY+n1es6cOUO9evWoV6+euj8jI4PS0lI0Gg3u7u5oNBoArl27Rt26dTEzMwOgpKSE0tJS7O3tycjIQK/X4+zsjK2tba3cjxDiwbJ9+3a2bdvG4cOHGTNmDB4eHsyaNUs9fu3aNZycnBg/fjzdu3fHwsKCESNGsHXrVoKCgrh06RLz58/H29sbLy8vduzYwahRo9izZw8TJ04kJyfHZLzJyck888wzjBs3jsOHD2NlZcXOnTsBWLx4MRs3bmTQoEF4enry8ccf8+qrr7JmzRomT54MlPckWLt2LXZ2dsTHx6vhtmvXjkmTJgHQo0cPwsPD2bx5Mz///DMAq1ev5syZM3ckL4UQQgghxN1zz/UA2Lt3L4GBgWzYsIF///vfzJgxQz3Ws2dPFi5cyNy5c+nWrZvaNTU8PNxo0qvdu3ezfPly9ZoFCxYwZswY+vbty4ULF+7uDQkhHjjdu3dn+fLltG/fnqVLlxpV/gEaNGjAwIEDGT58OOvWravW+KjVapk6dSpvvfUW69evrzZpX0VjZlX9+/fH3Nycvn37kpSUZHQsNzeXfv368dVXX9G5c2ejHgQVnJ2dsbOzq7a/fv366t8ODg5kZ2fj7u6u7mvcuHENOSGEEEIIIe4ntdoAcOLECT777DN1OzMzk1mzZrF161amTp3KqlWrcHR0ZNWqVQC4uroSGRnJggUL+Oqrr9S3WtdTcc3q1auZO3cuQ4cORa/X37F7EkI8PLp164a5efWv0fPnz+Pm5sbatWuxsbHh4MGDWFlZUVRUBMDSpUuZMmUKS5YsoWvXrup1paWlQHklPCMjQ91/+vRpAH799Vf69u3Lxo0b2bhxo9HQg169eqnbbdu2VXsRWFhYqPMM3CxHR0fy8vJIT08HYMWKFbd0vRBCCCGEuDfV6hAAnU5HXl6eur1582ZGjRqFtbW1um/MmDFq4bfqtRVDAG5Ww4YNee2119i5cyevvvrq30+4EEIAISEhJvd7eHgwefJknJ2dOXv2LKNGjcLBwYH4+HiWLVtG7969GT9+PI0aNUJRFJo0aQKAt7c34eHhLFmyhKCgIIKDg3F1dSU/Px8AT09PRowYgYuLC25ubpSVlfHcc8/x+++/ExERwWuvvYaPjw9JSUksWrQIKO+t0K9fP6Kiom7p3pYtW8bEiRPR6/W0b9++xmEJQgghhBDi/lFrDQCDBw8mOzubixcvcurUKSIiIkhPT6dTp05G51laWuLn5weUzwHQr18/DAYDRUVFfPzxx7ccb+PGjUlLS7st9yCEEKbY2tqqXfsdHR3VLv0//PADRUVF2Nvbs337dnQ6HTY2Nup1CxYsUIcDhIaG0qdPH6ysrLC0tFTP2bx5M7m5udStWxeAXbt2AeUV/cDAQHJycnBxcVHPDw4O5tVXX8Xe3p7Nmzer+z/66CMAnnzySV588UV1/7p164DyVQWWLl2KnZ0dX3zxBc7Ozrc1j4QQQgghxN1Xaw0Aq1evJiEhgR07dqiTTx0+fJiTJ0/SsmVL9Ty9Xs/vv/9O586d8fDwYMOGDXz//fccOnSI5s2bA+WNBBVdZ6G8d0DlAnNlR48eJSAg4A7emRBClHNycjLaNjc3x97eHgCNRmNU+Td1janx+mZmZmrlH6BOnTpG4Veu/FdwcHC45bQHBAQQGhqKjY0N7u7uzJs375bDEEIIIYQQ95ZanQPAzc2Ntm3bqtuvv/46K1asMOpqunDhwmpv7Lt27UpiYiKpqakA+Pv788svv6jHd+/eTZs2barFl5CQwG+//Ubnzp1v850IIcSDpW3btmzZsoV169bxySef3PKQKyGEEEIIce+p1TkAvLy88PLyUrednJyYP38+AwcOxNPTk6tXr9K5c2dCQ0OrXTtz5kzef/991q9fz6hRoxg6dCjff/89RUVFNG3alI4dOwL/f9hAxVKA69evNzlplxBCCCGEEEII8SCr1QYAU1q0aMF3331Hfn4+NjY2WFj8/yRu375d/btZs2asX78eAGtra7744gsKCgqwtLQ06hL7v//97+4lXgghhBBCCCGEuEfdcw0AFf7OmNWKsbVCCCGEEEIIIYQwJn3hhRBCCCGEEEKIh4A0AAghhBBCCCGEEA8BaQAQQgghhBBCCCEeAvdkA8C5c+fIzMz8R2FkZ2ffptT8fVqtlvT0dNLT0yksLLzhuUVFRSb3FxcXq9uVl0i8XSry6k6ELYQQQgghhBDi3nBPNQDk5eXRo0cP1qxZw/jx4/n8888BKC4uJj4+/pbCGjNmzC3Hf/bsWTIyMm75uprC+Pbbbxk5ciQLFy7k7bffZuzYsSiKYvK6b7/9lq+//trk/h07dgCwZ88eVqxYwb59+/jqq69qTENN+TVhwgST548ZM4aCggJGjhx5w/sTQgghhBBCCHF/qtUGgBMnTvDZZ5+p27t37yYwMJBp06bx5ZdfsnPnThRF4b///S9bt24lPz8fnU6HTqdTr8nPz1f/Li0t5fz58xgMBqN4CgsLOX/+vNF5er2ea9euqW+/dTodmzZtIiEhweiNe4XLly+Tl5eHTqdDr9er+1NTU9U0mArjjTfeIDIykpiYGBwdHTly5Ah5eXlGYVfdBsjIyKjWi2Hx4sWMHDmSdu3a0aVLF6C8h0BJSQnp6ekA1fKrsg8++KDGvLK3t6dp06bs37+/WlqEEEIIIYQQQtz/anUZQJ1OZ1T5bdy4MbGxsbz66qs8+uijrF27lvz8fFasWMH58+dp0qQJdnZ2FBcX069fPwDCwsLYsGEDp06dYuLEiTz99NMcPnxY7XK/detWPv/8c/z8/EhJSSE2NpbffvuNzz77jGbNmpGenk5gYCC+vr7s3LmTY8eO4eTkRIcOHdR0hYeHY2ZmRn5+PikpKcybNw8/Pz9CQ0Px9fUlJSWFIUOG4ObmZhQGQEFBAVlZWeTm5pKcnEzDhg0ZPXo00dHRODo6kpiYyKZNm2jevLka37vvvktJSQkGg4GEhATeeustMjMzcXBwwN7enri4OFJSUhg8eDAvvPACAQEBWFlZYW5uzvvvv2+UXyEhIUb3cb286tu3L7GxsTz99NN37qELIYQQQgghhKgVtdYAMHjwYLKzs7l48SKnTp0iIiICf39/5s2bx8cff0x6ejoffPAB7dq1IyIigh07dhASEsLWrVtNhjdlyhRWrFiBh4cHqamp9OrVi7KyMmJiYvjhhx8wNzdn27ZtrFixgkaNGtGiRQumTZsGQM+ePdm6dSvdu3enQ4cORpX///73v9jY2DB37lwAunfvDsCyZcvo378/PXv2RFEUunbtyg8//GAURkpKClu3buXUqVMUFRVhaWmJtbU1AwYMYP369YwePZqVK1cyYcIEDhw4AMCff/6JVqtl8eLFAAwbNgyAo0eP0q5du2r3bWlpyYIFCwAYP348165dM8qvm80rgKZNm3Lu3Llbe5BCCCGEEEIIIe4LtdYAsHr1ahISEtixYweTJk0CoKioiMaNG7NkyRKys7N57bXX2LNnj9F1ZmZmJsMrLi7Gw8MDgIYNG+Lp6Ul2djZpaWnqfAA6nY42bdoA0KBBA/Vaa2vrGtOZlpZm9Ha+WbNmAJw+fZrDhw+r4/Mr0lDVgAEDGDBgAADbtm0jNjaW8ePH06dPH4YOHUpWVhYNGzZUGwCSkpJo3769en1AQAAAubm5aq+Cyirfh7e3N5mZmWg0mhrvpyKdVfOqQk1zFAghhBBCCCGEuL/V6hwAbm5utG3bVt1es2YN33zzDQAuLi54eXlRUlKCpaUlWq0WAB8fH3U8f1lZGSkpKQA4Ojpy4cIFoLwSffnyZVxdXfHx8SE6OpqYmBg++OADgoODa0xP5XgqdOzYke+++46ysjLy8vL49ttvAfDz86N3797ExMQQHR3NlClTsLa2NhlGhcLCQiwsLDA3N+epp57inXfeISgoyOgcPz8/fv/9d3W7ogHE2dlZHed/PYqiXDcNYDqvoDw/S0pKbhiHEEIIIYQQQoj7T63OAeDl5YWXl5e6PXjwYIYMGcIPP/xAXl4eLVu2xMnJCVtbWw4dOsTatWsZOHAgsbGxjBs3DnNzc/VN9syZMxk7diyPPvoo2dnZNG3aFHNzc958802CgoLw9PREq9USFRVVY3pefPFFxo4di42NjToMwMvLi/DwcN544w1sbGx49tlnMTMzY9iwYYwaNYq4uDgyMzMJDQ2tFgZAVFQU27dvp6ysDGdnZ5YsWQKUd+3v0KEDn3zyiVEamjZtio+Pj9proOKNfKtWrVi5cuVN5Wvjxo3V/KpIV2Wm8grKezX4+/vfVBxCCCGEEEIIIe4vZspd6vOtKAoHDx6kY8eONzy3Yry8paWlus9gMFBcXIytrS1QPvu/g4NDtWtN7S8rK6OoqMjk+VWVlJRgbm6uxq3X61myZAkRERFA+az+ixYtwt3dXY3P1tbWqNt91TBMSUxM5Ntvv2Xy5MkmjxcXF6PRaIzC6NevH7GxsTd1H1Xzy5SqeTV16lS6d++uDpMQ4kEQHx+Pg4MDjRo1+kfhJCcn4+7ubnIojhBC3Cn79++nefPmtf7dk5qair29Pa6urrWaDiHEw2Xjxo0EBwfXOAxc3LpaHQJQE1tb22qVZ3Nzc6PKbE2VYFP7NRrNTVWaAerUqWMUt4WFBe7u7rzxxhsMGzaM3r17q5X/iviqjrmvGkZVp06d4uOPP2b8+PE1nlMxnKCyiIgIYmJibuo+quaXKZXzpGKpRKn8CyGEEEIIIcSDqVaHANwvQkJCapxR/+948sknWbdu3S1fFxAQQKtWrW5bOiqzs7Nj6dKldyRsIYQQQgghhBC1757sASBqVqdOnTsW9vVWQxBCCCGEEEIIcX+TBgAhhBBCCCGEEOIhIEMAhBDiJmi1Wk6ePIm9vX1tJ0UI8RA5d+4czZs3r+1kCCGEeEDckz0ASkpKKCwsvK1harVaioqKbmuYFTIzMzl58iQGg+GOhH+35eTkkJ6ezsWLFykuLq7t5NyUnJwcKi9oUVhYyPHjx+/YM78VJSUltZqPBoOB3NzcfxRGTf9/tFotxcXFXLt27R+FL4QQQgghhLjz7skeAJGRkSQlJbFmzZrbFua3336LXq9nwIAB6r59+/Zx6dIlgoKCqp1/9uxZ7O3t8fDwqDFMnU7HhAkT0Ol0PPLIIyQkJBAZGUnjxo1vW7rvln379tGpUycAJk2aBIC9vT3nz5+nV69eRvl2s+H9k7y9VZMmTWLOnDnUrVuXTz/9lD179tCyZUvi4+MZNmwY3bp1u21x3arZs2cTGBjIwYMH6dKlC76+vibPu9l8udX8u3LlCnPmzGHhwoW3lO7K8Zj6/wPl/6+sra1JSkoiICCA55577pbiuJ/Y2NjQsGHDWl+KSwjxcMnLy6vtJAghhHiA1GoPgBMnTvDZZ59V23/o0CHy8/ONfvS0Wi1arZacnBy0Wi0Gg4G//voLKK+IV/xdVlZm9KZSr9ej1WpNxt+uXTu6dOkCQFFRERkZGWp4mzZtIiEhwejNrcFgYN26dWzcuBGA6dOn89JLL7F8+XKmT5/O2rVrGTNmDHq9Xo373LlzlJaWAqAoilHPhqKiIsrKytT0Xbp0qVpaKlQs01dZeHg4586dM3lvFS5fvkxeXh46nU5NF5Sv55ufnw9Afn4+CxcuJCsri7KyMgAmT55MZGQkW7ZsYcOGDWo+VL2nmuK5lbw1FWbl513T/QOkpKQYPaO4uDjOnDnD5s2bmTJlClu3bmX9+vUkJSWZvPeK+69QWlpKcXExpaWl6PV6rl69ik6nA+DixYtGaTSV7rKyMtLT09XtgoICjh49Srt27QgJCcHHx8foeVf8XdNnrmqYVc8rLCw06vlQ9b4qp6VCZmam+v+lIq9vJT0AGRkZZGdnq9ujR49m8eLF1c4TQgghhBBC3DtqtQeATqer1rL922+/8cwzz+Dt7c3GjRsJCwtDr9fz/PPP4+/vz7Bhw/jkk09wcHDghRde4IknnmD+/Pk0atSIgoIC5syZw8CBA9myZQsAn332WY1j5/bu3UtKSgrt27dnxowZeHt74+DgQK9evdi5cyfHjh3DycmJgIAAvv76a7Zt20ZwcDBdu3YF4H//+x8fffSRGl7dunWJiopCp9Nx/vx53n77bTp27Mj+/fuZNWsWDRo0YNKkScTExAAwd+5c+vXrx/r167ly5Qre3t4EBgYapWXatGls3bqVzz//HD8/P1JSUoiNjcXKyoqpU6eycOFCiouLmTBhAl5eXkb3Fx4ejpmZGfn5+aSkpDBv3jz8/PwIDQ3F19eXlJQUhgwZQl5eHomJicyZM4d3/x975x4WVbX//zczgIAgIgKiCaEijSgS5gH1lHaSRAUiDAFBUVAhlRQ1L2koamimiYpCclBATTJvdTzm7SRmmPbzgqjITbkqIYhymxmYy/r9wXd2s2f2BlSMsvV6np6cPXt/1metvYaZtfZa7/fSpawYhBA0NzdDKBSioKAAUVFRGD58OG7cuIGtW7eib9++nOU8efKkXW1rbm6uFdPa2pp1v+/fv69Vf4VCgeDgYDg5OSEvLw85OTkAgOTkZOzYsYNVh23btjED+5CQEIhEIhQUFGDChAkICgrCrFmzkJ6eDqBl5UJubi4GDBiA+Ph49OvXD8uWLcPatWthYmKC7OxsJCQkQCqVauXds2dPBAYGwtHREfn5+Th48CBOnTqFCRMmAAA2b96M6dOnIzU1FTU1NbC2tsa1a9ewYcMGiMViVru4ubkBaBmcq8f85JNPWOelp6dj2bJl6NWrLgqmXQAAIABJREFUFwAwdTl06BAOHToEBwcH3LhxA6+++iqAlomd6upqGBgYwMrKCsuXL0dsbGyb+aizdOlSNDU1QalUIisrCwsXLoSJiQkMDAxQU1ODHj16cH7eKBQKhUKhUCgUSufSaRMA06dPR01NDe7fv4/c3FxERUVh6NChSEtLw9q1a2FmZoZJkyZh1qxZAAChUMgMnKurq5GUlARjY2NcvnwZiYmJMDU1xdy5cyGVSmFvb4+cnBwMGjQI58+fR2RkJPPUnousrCx4eXkhJCQEFy5cgLOzM7y9veHm5gY3NzdkZmZi8+bN2LdvH/r16weg5Ulx165dtWI5ODgAaBloJSUlwcrKCo8fP8bMmTORnJzMWT4hBH5+fhg7dixSU1NZuSgUCiQmJuLEiRMQCAT4/vvvkZycjA8//BDm5uaIiYnBjh07MHv2bPz3v/9lYv76668wNDTExo0bAQDe3t4AgF27dmHKlCnw8fEBIQQTJ07EiRMn8O2332LTpk3M9XPnzoWhoSFqa2sxa9Ys6OnpITo6Grt374alpSWqq6sRFRWFyMhIznLa27aBgYFaMffs2cPcb4VCgU8//VSr/s3NzQgKCoKvry9kMhmGDBkCoOWpt+YA1NLSEkDLRIC/vz98fX1BCIG3tzd8fX15+8XgwYOZCZ7S0lLs27cPtbW1kMlknG2xbt069OzZE2vXrkVWVhbEYjGysrIwefJkrfv9wQcf4O2338ajR4+wZMkSJCcns9pFxcOHD1kxBw4cyDpPNXGhjkKhwFdffYVTp05BIBBg7969uHr1KrKzs9HY2Mh8jhYuXIg7d+60K5/i4mIAwI0bNyCRSJin/WFhYUy5w4YNw61bt/DWW2/xtimFQqFQKBQKhULpPDptAiAlJQVZWVk4efIks+e8oaEBFy5cYPb+l5SUME9jVU8wAcDc3JxR4m5sbMTChQuhr6+PX375BXV1dZg9ezbi4+MREBAANzc36OjotJpLUFAQNm/ejMDAQEybNk3r/VGjRuE///kPvvzySzQ0NGDx4sXo27cvGhoatM69cuUK+vfvD4lEwuzRNjMzg1KpbDUPVf00c6mpqUFpaSnmzJkDoGXVhIuLCwDg4MGDOHbsGPz9/VmDf6BlwKq+8mHQoEEAgLy8PFy5cgUnT55k3uNa4r1jxw7o6uoiLCyM2cdfWlqK6Oho5pyuXbvylqOirbbliqneHnz1z8/PZwbvenp6TJuYm5vjt99+Y56IA0B5eTnq6+uRl5eH999/HwCgo6MDkUiE+/fv894X9T63atUqLFiwAN26dcPatWs587a1tYWHhwemTp2KN954Ay4uLqitreXcM963b18m39YEL7liqsOVe01NDWxsbCAQtOzwcXV1xdWrV5GXl4ebN28iIiKCOU8l3tfefPLz8zF8+HDmtaurK/NvU1NTZssGhUKhUCgUCoVC+fPRqVsALCwsMGzYMOb1wYMHERERgbfffhsAMGDAAOzZswefffYZb4yEhAQcPHgQOjo6zEC1X79+qKiowK5du7B+/fo288jMzER4eDi6desGX19fjB8/Hnp6eiztAHNzc3z22Wd48OAB7t27h759+8Ld3R1JSUnMKoXq6mp88sknOHHiBExNTVFaWgobGxtUVlZCX18fpqamLDX2u3fvtpnLuHHjYGdnh4SEBOjo6ODu3bswMTEB0DL4279/P+cgcMSIEZg/fz6Cg4PR2NiI7777Dh988AEGDx4Ma2trZgXA5cuXYWBgAIFAgObmZujr6zMxevXqhTfffBMHDx7E5MmT0b9/f8TExMDKygq1tbW4f/8+TE1NOctpb9tyxVTH3Nycs/5HjhzBhQsXMGXKFEilUly+fBlAy1705cuXIzk5GQKBAEqlElFRUYiNjYWTkxNzjUKhwO3bt9G3b18YGBhAKpXCwMCA857I5XJUVFQgOTkZp06dQmpqKmfeRUVFGDhwIPbv34/ly5fj9u3bMDMzQ3l5OWxsbNrsh5p9DgBnTPXz7OzsUFRUhF69ejG5m5ubo6ysDDKZDHp6esjIyAAAODo6YsiQIdiyZQuAllUiw4YNw4kTJ9qdz+DBgxEXF4epU6cCADIyMpgVDuXl5cwKGAqFQqFQKBQKhfLno1MnAPr06cPat3706FF8++23MDAwAAA4Ozvjq6++YoTpuBgzZgxmzJgBExMT1pNsPz8/HDp0CBYWFsyxHTt24Pjx4wBaBreenp4AWgZM4eHh6N69O2xtbQEAY8eOZZbBqy/J7t27N3r37g0AWLRoEVavXo1JkybBzMwMNTU12L17N3R1dbFlyxbMnj0bvXr1Qnl5ObPs+p133sG0adPQo0cPTls1zVwEAgHmz58PPz8/9OrVCxKJhNnjzqWwr962kZGRCAwMhKGhId58803o6OggLCwMEREROHv2LKqqqpin8p6enggKCtLaPx8VFYXx48fDy8sLa9euxYcffggbGxuUl5dj48aNvOXw1UezbbliqsNX/7CwMMyePRsZGRmorq5mlPXd3NxQVlYGb29v9OnTB+Xl5ViyZAns7e3Rv39/fPTRRzh37hwqKyuxePFidOnSBZGRkfD394e9vT2ampq0NCN0dXVx/vx5nD59GoWFhYiNjYWnp6dW3hYWFli5ciV69uyJ4uJivPrqq8yy+JEjR/LeKxVcfY4rpvp5U6dOxcyZM2FrawsDAwN0794dAoEAixcvhq+vL6ytrSEUCtG1a1cMGjQIvXr1wowZMyAUCmFnZ4d//OMf7cpHhUgkgp2dHeMGoC5AmJ+fj6ioqDbrSaFQKJSXm8bGRhQXF8POzg5GRkYAWjRtHj16BAAwMTFhVscpFAo0NDSwVstVV1ejZ8+ezDV6enqwtLRsc0UnhUKhUNpGh6j/gn+BEEJw6dIljBgxosNjS6VSdOnShfXFEB8fj6FDh+LNN99sd5yGhgZmawHQ4t8uEAigp6fX6nUKhQKNjY3o1q2b1ntcS8AlEgn09fUhFArbnYvK3UD19L8t5HI5tm/fzgzIAgMDsXXrVmY/fH19PYyMjFg5NDY2wsjIqM0vWPU6tVUOX30025ZvqXxb9W9oaEDXrl05c37y5AlMTU213quvr4ehoSF0dX+f/5LL5ZDL5czkExdc940rb/W6SiQSTJ06FYcOHeKNqw5fn2ut/VTuEurvAy1t1tTUxPz4Ur+WENJqXdvKRyqVQigUMsfr6+sRERGB/fv3t6uefyTXrl2DiYkJ7O3tnytOQUEBLC0tqQ0ghUL5Q7l48SIcHR07/W9PSUkJjI2NYW5u3up5fFa86enp2Lt3L0QiESMY+8UXX+Du3buIj49nWdV6eHjg5MmTzDX29va4d+8ePDw8mC2BFArl78E333yDyZMn0wnADqRTVwB0FJoDmWPHjqG0tBTz5s17qjiaA6guXbq06zqhUMg5+AfA+YWt/kS1vbkIhcJ2D/6BlqfWlpaWCAwMhJGREXx9fVmDcq5YXKKGXKjXqa1yVLTVtm39sOGrv2Zcdbp37855nCuOrq4ua0KAC677xpW3ek6GhoZwdXXF5cuXWfvl+eDrc621n46ODmc7CIVCrcF/a2U8TT6an7mdO3di/vz57Y5LoVAolL8+ycnJcHFxweuvvw6AbcWrIiAggNkeFhgYyKwgW7t2LX766SctByNN1K/55JNPcODAAQQGBr6I6lAoFMrfgpdiAkATHx8f+Pj4dHYanU5QUBCCgoJemnL+qkRFRb30s5bz589v14oCCoVCobw81NfXo6mpiXndmhWvJhKJpM0VlprExMTAx8eHTgBQKBTKc/BSTgBQKH8m2lpZ8DJAB/8UCoXy9yE3NxcbNmxATk4Ozpw5AwsLC3z11VetWvECv2sxicViDBkyBCNHjkRhYWG7y9XT02McbigUCoXybLz8IxMKhUKhUCgUSofx2muvISUlBXFxcXBzc2OEa1uz4gWAuXPnIigoCOPHj8fChQsBtAzqNVcI8MlTcdkWUygUCuXpeOmmUWtqal5o/ObmZjQ0NDD/V6eoqAjFxcUvtHwumpqamC9FuVyOO3fucDoMtBeJRPKn+pJ9kfk0Njbi9u3bz9Vef0WePHnS2SlQKBQK5S+Os7Mza7CvsuJVKpUAwFjxqq+E09HRwapVqxAdHQ2gxbUoJyeHcXyqqKjg1K9RKBSIjIxERETEi6wShUKhvPT8ZScAFixYwHn8RavDXrt2Df/+97+Z/wPA/fv34ePjg507d2L79u2YNm2a1uTAi2T9+vW4desWbty4AR8fHxw6dAgffPABsrOzAQB3795FZWVlu+N99913OHny5FPnkZmZ2a7z/iz5xMfHIyQkBIcPH8aUKVPwn//856nL+CvS0NCA8PDwzk6DQqFQKH9xxowZg1dffZV57ebmhgkTJsDb2xvh4eHw8vLCvHnztFxYRowYgfr6ety8eRO6urr4+OOPMX78eMyaNQvTp0/Hhg0bmHN37NiBgIAAvP/++/Dw8MDEiRP/qOpRKBTKS0mnbgHIyclBRkYGM2ivq6tjqenX19cziu0lJSXo0aMH83rFihXMeTKZDOXl5YzPPBea10skEhgYGKCkpAQ2NjYQCASQyWTQ0dFBbW0tTExMoK+vj6qqKigUCtYMtybh4eHYvn077OzsALRMEnz00UfYvXs3gJanzA8fPmTeb25uBgDo6+uz6imRSGBoaIgHDx6gd+/eEIvFqK+vh5WVFVOWZqyGhgZkZ2dj9erViIqKwpYtW2Bvb4/Hjx8jJiYGGzduxMGDB+Hi4oLRo0dDoVCwrP7U27iyspJTkEezDdTzNDMzg6GhIerr6xEXFwcHBweYmZmxrPLU69Hc3PxC8tG8l63lA7SuVDxw4EDOPqOem0wmg0KhgIGBASQSCYCWlRjdu3fH/fv3YWlpyeQul8tRWlqKvn37ctZHLpczuau/r1m+pk2jer9prXzNWMbGxhCJRLh48SJGjhyplQ+FQqFQKM+Kn58f/Pz8tKx4AwICWOelpaUx/54wYQI8PDxQV1fHcvAJCAjQuo5CoVAoz0enTgA0Nzejrq6OeT1nzhwkJCTAxMQEhYWF2LVrF9asWYOQkBCIRCIUFBRgwoQJCAoKQmRkJNLT05Gbm4vFixdj5MiRuHLlChobG1llSKVSTJs2DQMGDEBxcTFmzJgBd3d3hIaGwtzcHFZWVrh9+zZ2796NixcvIj4+Hv369cOyZcuwbds21NfXQ1dXFwqFguVRq+LOnTuwt7dnBuQA4OLigsjISAAtloTp6ekYNGgQrl+/jrS0NPzvf/+DVCplvtRmzZqF9PR0xMbG4uHDh7CxsYGnpyfWrl0LGxsbmJiYICYmBseOHcPevXsxePBgFBcXIykpCadOncKECRMAtCzFS0hIQExMDMzMzBAXF4esrCycOXMGt27dgqmpKdLT07Fs2TJm8Kwqe+nSpWhqaoJSqURWVhazN2/lypWorq6GgYEBrKyssHz5csTGxqKmpgbW1ta4du0aNmzYgJs3b+LmzZvYsGEDli5dCgsLCwDAjRs3WPV4//33Ozwfrnt5+vRpznxUtKZULJVKOfucKjegZXVBbm4uZs6ciX/9618YOnQowsLCkJaWBhMTE2RnZyMhIQFSqRRRUVEYPnw4bty4ga1bt6Jv375MmQUFBVi0aBHc3NyQnZ2N9evXw9ramrP8FStWaLXVvn37Wi3fwsKCs//7+/sjKSmJTgBQKBQK5YXAZ8XLh0AgeOprKBQKhfL0dNoEwPTp01FTU4P79+8jNzcXUVFRCA4Oxtdff43w8HAkJydj1qxZ2LVrF/z9/eHr6wtCCLy9veHr68vEiY6ORnJyMqysrFBSUoL333+fVc6uXbswZcoU+Pj4gBCCiRMnwt3dHdXV1UhOToaRkRGOHDmCQ4cOoXfv3hg8eDDWrVuH7Oxs1NXVYdu2bUw5mZmZWk+Sy8vLWYN/Fa+//joUCgV27tyJH374AUKhED/++CO2bdsGR0dHzjYhhMDPzw9jx45FamoqvLy8EBISggsXLkChUCAxMREnTpyAQCDA999/j+TkZDx48ACTJ08GAISEhODMmTOIiIiAnp4evvjiCzg7O8Pb25sR6VENYNW5ceMGJBIJU9ewsDAAQHZ2NhobG5GYmAgAWLhwIe7cuQNCCD744AO8/fbbePToEZYsWYLk5GR8++232LRpEyt2VlYWqx4vIh+uezlt2jTOfFS0plS8bdu2VvucJkKhkMlp3bp12LdvH2prayGTyRAdHY3du3fD0tIS1dXViIqKwt69e5lrV65ciaSkJFhZWaGiogJHjx6FXC7vsPL5+r9IJMK9e/d4Y1Kej8bGRhQXF8POzo7ZyyqRSPDo0SMAgImJCUxNTQG07GttaGhgXgNAdXU1evbsyVyjp6cHS0vLl95OkkKhUCgUCoXyYum0CYCUlBRkZWXh5MmTWLZsGQDAyckJ/v7+CA0NRWlpKezt7REXF8cM6nV0dCASiXD//n0mjlQqZZbI29raai3Vz8vLw5UrV1h7yKVSKczNzZkf5jY2Njh//jx69+7N7GXLy8vD8OHDmWvc3Nxw584dDB48mBW/X79+OHr0qFb9zpw5A2dnZ/Tt25eZNHBzc8Pu3bu1YqijKj8oKAibN29GYGAgpk2bhpqaGpSWljLbJZqbm+Hi4oLa2lpm4FBXVwd3d3e4u7sjOzsb06dPx3//+19WfK4BRH5+Pquurq6uTBvcvHmTEdypqanB48ePAYB5im1ubq616kIdzXpo0hH5cN3LtmhNqTgvL4+zz/ENvtT3P65atQoLFixAt27dsHbtWpSWljJCRwDQtWtX1rUSiYTpv9bW1pgzZw7mzp3bYeXz9X8DAwNelWXK8xEfH4+MjAw4OTnh2rVrCAsLg5eXF7777jvs3bsXIpEINTU16NGjB7744gsUFRUhPj6etcIoODgYJ0+eZK6xt7fHvXv34OHh8cJ1TigUCoVCoVAoLy+dKgJoYWGBYcOGMa91dHQwbNgwxMTE4L333gPQMilw4cIFAC1Pym7fvs1aQt2tWzeUlZUBaBk4VlRUsMoYPHgwfH19kZiYiISEBERHR3N6lmsOhgYPHswSkcvIyMDQoUO1ruvfvz+qqqpw48YN5tilS5fw7bffwtzcHOXl5Yy9zblz5+Ds7Aw7OzsUFRUxdeJyDsjMzER4eDj279+Pr776Cubm5rCzs0NCQgISExOxYsUKTJ48GWZmZigvLwcAREREMOJ6IpGIUdTV09Nj9omrl3337l2mrj///DOrrgDg6OiIIUOGIDExEYmJiVi8eDEzGOdCIBAw+gZ89fgj8lHdS658VLSmVMzX5wwMDBg3AlWu6sjlclRUVCA5ORkeHh5ITU1F//79ERMTg8TERHz++ef46KOPWNeYmpqitLQUAFBcXIwvv/ySt3yutmqrfL7+r1Ao0NTUxNk2lPYzd+5c1mt1bYno6GgcO3YM+/fvR35+PgAgMDAQmzZtwu7du2FqaoqffvqpzTICAwMRFxeH77//HuXl5Thw4MALqQuFQqFQKBQK5eWnUzUA+vTpgz59+rCOzZgxA2+88QYKCwsBtOxz/uijj3Du3DlUVlZi8eLF6NKlC3P+Z599hrlz5+KVV15BTU0NRCIRK15YWBgiIiJw9uxZVFVVcT6F5kIkEsHZ2RlBQUEQCoVwcnLC8OHDcenSJa1zk5KS8NFHHzEDT2NjY2zfvh0CgQBr1qyBr68vevfuzSzjFwqFSEpKwrx58yAQCFgifyrMzc0RHh6O7t27w9bWFgKBAPPnz4efnx969eoFiUSCHTt2YNiwYbh16xZGjhyJVatWYcaMGbCxsUFxcTEzOBk7dizmzp0LQ0NDTJ06FTNnzoStrS0MDAzQvXt3iEQi2NnZITg4GMDvA+hBgwahV69emDFjBoRCIezs7PCPf/yDt808PT0RFBSEHTt2MMvpNevRGfls3rwZQUFBzKAaaFmNUVZWBm9vb/Tp0wfl5eVYsmQJ7O3t0b9/f84+FxkZCX9/f9jb26OpqUlrK4euri7Onz+P06dPo7CwELGxsfD09MSHH34IGxsblJeXY+PGjaxrtmzZgtmzZ+OVV17B48ePsXHjRlhZWXGWz9VWbZUvEok4+39eXh7nhBbl6VAt6VfRmraEJhKJhFMUsjViYmLg4+ODwMDAp0+WQqFQXiBKpRIPHjzQOv7KK688V9zm5mY0NzfD2Nj4ueI8K5WVlZDJZBAKhbC2tm713EePHsHc3FzruGrVF9Ai2EsI4XwY9axIJBLo6OhAIpHAzMysw+JSKJSXEx3yB60DJoTg0qVLGDFixDNdX19fD0NDQ5aXrOb7KrV0vveNjIy09vC3hUqIztDQsM1zpVIpCCFa5yoUCjQ2NrIcDtqTM9Ci8q/+padQKCAWi1luBlOnTmWp2dfV1cHExIS1ZLypqQkCgQB6enoghKCxsVHry1QqlUIoFGoNSp7my0pTqZ6vHn90Pp9//jmz1UQTTaViFVx9Ti6XQy6Xt1q2RCKBvr4+q6+pb9XgQrN9+Mrna6u2ytfs/6tXr4a3tzdcXFx447wsXLt2DSYmJlo2VE9LQUEBLC0tYWpqimPHjuHYsWM4f/48Ro8eDTs7O6xatQqenp44fvw45/Xp6enYunUrbG1tIRaLMWTIEHz22WcoLCzU2gLg4eGBkydPIj09HXK5nJkMAwAvL6+/jWUlhUIBLl68CEdHx1a/Q/4ISkpKYGxszDnABVocf1Rb3g4fPoxJkyYBADZu3AiB4NkXnF66dAmXLl3itX9+EWRmZmLUqFEAWiwLR40aBUIICgsLsWLFCt6HD3zfAQEBAYzm0erVq+Hp6YlLly7Bw8MDAwYM4Ix19+5dGBsbsx4SZWZm4sGDB/Dz82Odm56eDgMDA+Tn58PV1RWjR49+pnpTKH9GvvnmG0yePJnqIHUgnboC4Gloa6D8vO/zob7aoC34BoVCoVBr8N/enDQHekKhkHWdoaEhXF1dcfnyZWY5PFdZ6vXQ0dHhHEDy5f80baC5x12FZnl/dD6hoaG85/CpDnPdH11dXd5JKBVck0Vt/XDjqj9X+Xxt1Vb56rEaGxtRVFT0txj8vyh8fHzg4+ODgIAApKSkMMdb05YAWrYMBAUFYfz48YyzhZ6entYKAb55WdUWFAqFQvkzkJycDBcXF7z++uswMjJihHdv3bqlJcLLZav85MkTCAQC1u8WPmvc2tpaNDc3s1x9uGx2Na1xVTQ1NaGiogK2traQSCSMdpCmvXJFRQUSEhIgEonQo0cPmJubM3URi8UICgrCgQMHWA8ouFZ0cVlUq1s39+/fH926deO0Vta0TFb9HnrjjTdYWxs17ZI//PBDTJ8+nU4AUCiUVvnLTABQ+ImKiqKzYm2g2pJAaZkUUekxUJ6PcePGsV6rtCWSk5MhEAgYbYnY2FjmHB0dHaxatQrR0dHYsWMH+vTpg5ycHCgUCgiFQlRUVDA/TNVRKBSIjIxkRDApFAqls6mvr2+XngyXhW9SUhJu3rwJmUyGUaNGITg4mNMaFwD+85//4OHDh6iqqsKoUaMwffp0FBQUaNnsWltbs6xxVYLCN27cwLJlyzBs2DAUFBRAX18fe/fu5bRX3rt3L65cuYL4+HhER0dDqVSiuroahBCcPHkSw4cPR25uLo4cOYI1a9YAAGbPns3a/sVnUa1u3bx582ZMnz4dqampWtbKYrGYZZns5uYGALhw4QKKi4sxc+ZMTrtkExMTGBgYsLYcUCgUiiZ0AuAloK0n0hSKJh259/DvzIwZM1ivW9OWuHr1KnPeiBEjkJCQgJs3b2LIkCH4+OOPMX78eNja2qK0tJSxwASAHTt24Pjx4xCLxQgJCcHEiRP/sPpRKBQKF7m5udiwYQNycnJw5swZWFhY4KuvvuJcocdn4Wtra4tZs2YBaHE+CQ4O5rTGdXFxgbOzMzOR6uPjg+nTp3Pa7O7Zs4dljasiJiYGX3/9NczMzHDt2jVER0fz2isvWbKEOQdo2b+/bt06AC1i0xEREXB2dsaaNWsgl8tRU1MDY2Nj1ioGPovqrKwsxrpZBZ+1srplsiZ8dskAGG2ot9566ynuKIVC+TtBR44UCoXSgfj5+cHPz09LWyIgIIB1XlpaGvPvCRMmwMPDA3V1dawlqwEBAVrXUSgUSmfz2muvISUlBXFxcbyDVBV8Fr65ubk4evQoCCG4d+8eAG5r3EuXLrHcn1QT2Hw2u+rWuCpkMhkjjicSiSAQCHjtlTXp2bMno9FCCIG7uzu8vLzg5eWF48ePIz8/X2ubIZ9FNZ8eUHutlVXw2SUDLVsOnzx50mYMCoXy94VOAFAoFMoLgE9bgg+BQPDU11AoFEpn4uzszNrTz4XKwnfLli0AgF9//RUikQhfffUVUlNTIZPJ8M477wD43RpX5WZ05MgRjBw5kjOuymbXysoKtbW1uH//Pm8O9vb2+Pnnn/HPf/4T+/btg1KpZNkr6+jo4O7du4xejlwu54yjVCohk8mgo6ODgIAAZuC/ZMkS1nkqi+q+ffuyLKpV1s02NjatthnAtkzWZPDgwYiLi8PUqVMBtNglq1YWlJeXw8HBoc34FArl78tLNwHQkfuelEol6uvrn1t59969ezAxMWEJ13RGHnK5HAUFBbC1teXcY9zRPHnypFMHNM/bF5RKJWpra7UsdTrqfnQW7bEpUqcjLJg628aJQqFQKB3PmDFj2jyHz8LX0NAQc+bMgVAoZHR6uKxxS0pKOOOuXbu2VZtddT7//HN8/PHH2LFjB0aMGAEDAwNee2WgxaZ6yZIl2LhxIyorK5mVWLW1tVi1ahWAFsFdS0tLLUtggN+iWt26uS3ULZM1V1jw2SUDLasDoqKi2oxPoVD+xpA/CKVSSS5evNhh8ebPn8953N/fv8PKqKio4C2HEEJ+/vnnVq+vra0l3t7eJDr5Axh8AAAgAElEQVQ6mgQEBJC0tDRCCCESiYRcvXq1w/Lgo7CwkPz222+EEEKysrLIxIkTyZo1a8j48ePJjRs32lWHp81Vxblz58imTZvIzz//TA4ePPjc8Z8lj2fpC+rlVFRUkLCwMK1zNO9HXV0dWbFiRatx22rnP5KJEydyHudrr19++YVs2bLlucrsiBjPytWrV0l+fv5zx8nPzydPnjzpgIwoFAql/WRmZv4p/vYUFxeT6urqZ75eKpUSiUTCOiYWiznPra+vb3fc9rTN999/T3JycgghhNy6dYtERkYy78nlclJXV/dMOYSGhrZ6nmZcsVhMJk2a1GZcFVKplDQ3N/O+L5FIWO/X1dWRKVOmtDs+hfJXID09nSiVys5O46Xi2Y1ZO4CcnBzs3LmTeV1XV8d6X2WdBbT4z6q/XrFiBfNvmUyGoqIiKJVKrTJUTx41Y0okEiiVShQXF7PeV51TXl6uFauiooKx66qvr0dcXByqq6uhUCgA/G6vpuLcuXPw9PRETEwMDhw4gDNnzoAQgl9//RXHjh1DfX09b36t5aFZjmqJ2IMHD5h/qyxksrKyIJVKkZKSgi1btuDTTz/F/v37sXv3bs46NDc347fffgOAp8r1/v37LCuzbdu2ITw8HG+88QY8PDwgk8kgl8vx+PFj1NTUcMbXRBXzafLg6wuabfYs+fDdDxMTE8afWCKRoKmpiXWeylJIVU5reanQ7O+adVTZwUkkEkgkEma/n+Z9kMvluHfvnpbNnHosvs+OJvX19VpLLPni89VLRVVVFdPPVKj3PVXdAHa/plAoFMpfky5dumgJ0HLZ1gLc1rh8tGc13qhRo/DFF18gNDQU8fHxWLt2LfOepr1ye3NYt24d3nrrrVbP04yrbt3cHrp06aJlL6iOgYEB6/2dO3di/vz57YpNoVD+vnTqFoDm5mbWoH/OnDlISEiAiYkJCgsLsWvXLqxZswYhISEQiUQoKCjAhAkTEBQUhMjISKSnp/Narag4ceIEpFIps3xr1qxZSE9PR2hoKORyOV5//XX88ssviI2NxZAhQ3Do0CEcOnQIDg4OuHHjBiMmM2fOHFhZWeH27dtYtWoVcnNzcfPmTWzYsAFLly5FZmamlpXMwIEDkZSUhPHjx+OVV15BWloa6uvrkZycjKKiIjg4OKBr166c+fHlwWVZExsb26aFjLOzMxISEhATEwMzMzPExcXh8OHDrDqUlJRg8+bNsLe3R0NDA2JiYtqVa2RkJExMTJCdnY2EhAQYGBjAxMQExsbGOHv2LIqLi/Hqq69i586dGDRoEMrLy+Hp6Ylx48ax4gcFBTH3TT3mF1980a48+PoCV5v99NNPbeaj2pMIgPd+AC2D4AULFiAlJQXvvPMOXF1doa+vD4FAgPXr12tZCqk4duwY0tPT4ejoiKKiIiQkJIAQwtnfVXUEgMzMTOTm5mLmzJksu6O0tDTWfZBKpVoWSepCSm19dtQ5ePAg7ty5gx49eqC6uhq7du1CYWEhFi1ahBEjRuDixYvMZ0hVr0GDBuH69esssTuA2w7qypUrrL735ZdfcvbrgQMH8uZIoVAoFAoXPXr0wO7duzs05sqVK5/puhdp3Tx//nzq8kOhUNrmj1pqoLkFICQkhHh5eREXFxcSEhJCsrKyyA8//EASExMJIYQsW7aM5Ofnk61bt5LDhw8zMTw9PYlYLGaWK/v5+THL3IuLi8nrr7/OKvfo0aPkwIEDzGvVdf/85z9JXl4eIYSQmpoaMmnSJCKXy8nYsWOJQqEghBCSlpZG5s+fT5qbm8mPP/5ICGlZ/r148WJWLLlcTsaNG8dc991335GdO3cSQgjJyckh8+bNIz4+PuT//b//Rwgh5Pr162T9+vW8+fHlwVfOihUrmPyqq6tJaGgoIYSQLVu2kF9++YWJffr0aTJlyhQSEhJCHj58yKoDIYRcunSJWUo3Z84cUltb22auhBDi7e1N6urqSFlZGbl37x45e/Ys2bZtGyGEkDNnzpCkpCRy5swZEh0dzVz73nvvabWFOpox25MHV1/ga7P25KPaAsB3P1TIZDISFBREZDIZeeutt5jjkZGRpKSkRKudCWnpM+7u7kQulzP35vz58232d0JatlckJCQQmUxGRo0axdtmAQEBpLKykhBCSFVVFQkODiaE/L4FoK3PjopffvmFeHl5Ma9jY2PJyZMnyeTJk5nra2pqiK+vr1a9/ve//5F169YxWwBu3LhBFixYwMSKiooiOTk5nH2Pr18/LZ2xBaChoYHcunWLNDY2Pne5fyQKhYKUlZWRsrIy8ujRozbPramp4Tyu3k6PHz/u8DwfP35MlEolZ/kUysvGy7IFgEKhUJ4FugWg4+m0FQApKSnIysrCyZMnsWzZMgCAk5MT/P39ERoaitLSUtjb2yMuLo7xT9XR0YFIJGItQ+azWlHBN8varVs35mmimZkZFAoFampqYGNjA4GgZWeEq6srrl69CoVCge+//x6HDx9mll6rw2clIxaLMXDgQGzfvh01NTWYMGECMjIy2syPL4/WLGvaspCpq6uDu7s73N3dkZ2djenTp+O///0v65zGxkYsXLgQ+vr6+OWXX7S2ZPC15apVq7BgwQJ069YNa9euxfXr11u1uQHa9qHXjFlbW9tmHlx9oT1t1lY+fPeDC/WYNjY2qKqq4lT7rampQd++fSEUCgEA7u7uAIBvvvmGs7/z1Vl9JYJmm/FZJKlo67OjjqbdUE5ODsuuyczMDEqlUqtebm5u2L17N7Oags8OSiqVcva9p7VG+jMQHx+PjIwMODk54dq1awgLC4OXl1dnp8WLVCpFTk4OXFxc8PDhQ0yYMAHvvvsuZDIZ7t+/j8TERPTs2VPruocPH2LlypX497//rXV8w4YNjG1WeHg49uzZg08++YQ5xkVmZiZGjRrFOhYfHw8PDw8MGDCAdXzZsmXYsGEDIiMjsX37di2hTgqFQqFQKBQKN526BcDCwgLDhg1jXuvo6GDYsGGIiYnBe++9B6BlUuDChQuYMmUKFAoFbt++zRpk8VmtqLCzs2MGugqFAsXFxQBalFyzs7Ph5OSEyspKdOnSBebm5igrK4NMJoOenh4zWP/xxx8xZMgQhIaG4vbt24yVjUAgQHNzM6+VTGpqKiwsLPDBBx+gR48e6NOnD5qamljWLlz58eXBV862bds421e9nIiICGzZsgVWVlYQiUTMnn9VHfT19ZGQkICDBw9CR0cHfn5+WjG4cpXL5aioqEBycjJOnTqF1NRUDBo0CLm5ue3qA1w2N1wxx4wZ02oefH2Br82ys7PbnQ/f/WgP5P+UeTUthczNzVFeXs7EPHLkCMzMzHj7u4GBAaRSKQwMDHD37l2tcrjarC2LpLY+O+r8/PPPzL8zMjLwr3/9C5cvX2bsmiorK6Gvr69Vr3PnzsHZ2Zm5lssOatiwYQgICNDqe38F5s6dy6hGA8DZs2dRWFiIQ4cOMccCAgLg4OCAgQMHQi6Xo7S0FH379mX2bdbX1zP7RGUyGRQKBYRCIXR0dFBbWwsTExMIhUJUVFTglVdeYeJyxVKntrYWYrEYvXr1glQqZfbaVlVVQaFQoFevXozuxdmzZ2Fvbw8A+Mc//oFNmzYBAE6dOoW0tDTMmjWLtZdVc3JQVY/a2lro6v7+tfLTTz9hyJAhMDIyYnRbJBIJDAwMUFJSwkysqfRIHBwcYGZmxkwgBQUFoVu3bky84uJi1kTVzJkzkZCQgE8++aT1G0WhUCgUCoVCAdDJEwB9+vRBnz59WMdmzJiBN954A4WFhQBa9nd/9NFHOHfuHCorK7F48WJ06dKFOZ/PakXFkCFDkJSUhHnz5kEgEDBPLM3NzfH5558znrNxcXEQCARYvHgxfH19YW1tDaFQiK5du8LNzQ2hoaG4efMmS8TG09MTQUFB2LFjB6eVzPTp0zFjxgycOHECdXV1cHJygqmpKYyMjHD58mWkpaVh6tSpWvnx5dGaZQ0X6hYyq1atwowZMxhv3blz52rVYcyYMZgxYwZMTEyYlQ4DBw5sNVddXV2cP38ep0+fRmFhIWJjY2FjY9PuvXbq8adNmwYAnDHbyoOvLzxtm6mX8+677wIA7/3IzMzEoUOH8MUXX7RZT3VLIVXMNWvWwNfXFwMGDIBcLseWLVswevRozv4eGRkJf39/2Nvbo6mpSct2iKvNPD09W7VI4vvsTJo0CXFxcayJNmNjY/j7+6Nr167o2bMnxowZg8GDB2P27Nno1asXysvLkZiYyKpX7969oVAokJiYiCtXrgDgt4Pi6nt/BR49esR6nZycrNW/tm3bBplMhoKCAk7NBC59hwEDBiA+Ph79+vXD/PnzMX/+fDg6OiI/Px8HDx5EYWFhq/oOaWlpOH78OGxsbHD37l2MGjUKixcv1tJfmDdvnpbuRVNTE6qrqyGTyXDq1Cl4e3sjOTkZQ4YMwTvvvAOZTMYIaang08j49ttvGUEqlW5LaGgozM3NGU2V3bt34/Tp0yw9EpVl6ubNmzF9+nT06dMHwcHBcHJyQl5eHnJycgAAo0ePbtX6i0KhdA51dXUwMjJiTQg+L3wWts9KZWWlloCthYUF6zfms9CRdtQdgUQi0fqu6tKlyzNbU6uor6/XEiF8Vp48eYKGhgbo6Ogwvy1bo6GhAWVlZXBwcGBWZ3LxvPeiqakJhBCtVaLPEpevvTq6vzxPvM6276b8gfxRew2e1wawrq6OyGSyVt9v63p1VHuq6+rqtPaVyOVyzr27XHY1DQ0NzPV8VjKNjY1aNi4KhYJVBtd1fHnwlcOFpoVMbW2tVn3V6yCRSLTeb0+uYrGY2fdNSEv7tjdHzfh8MduTB9/xp2kzvnw070dDQwOjddAeuKyC+O4xV3+XyWRaFkqaaLYZIW1bJGm2y7Zt20hDQ0O7c+WKL5fLSW1tLW+ZXHZQXH2vI3gRGgBHjx4lISEh5NVXXyUhISFk9erVhBB+i0VCCKdmAiGEU9/hzJkzjLVkcXExCQsLIwqFgly9epU0NDTw6jsQQkhzczNxd3dn2nLz5s3kiy++4NVf0NS9cHR0JPPnzydz584l48ePJ3l5eaSmpoaEhIQQQgg5fPgw2bt3b7s0MlTaGur1HDt2LNOPDh8+TFJTU7XaQcWKFStIQUEBiYuLY7QxmpubiYODA6Mt8P7779O9gZSXmr+iBoC7uztJTk7u0PK5/r4+j1Xzpk2byKJFi4hIJCJz5swhixYt6pDvio60o34eVPXPzs4mixYtImFhYcTZ2ZksWrSIxMfHP3f89evXk+vXrz93HEIICQ8PJ+Hh4WTRokVkypQpjB4YF2lpaSQwMJBER0cTb2/vVj8bz3svVq1axeh3PW9cvvbq6P7yrPHq6+vJ5MmTOzSXjoJqAHQ8nWoD+DSYmJi0OiPIZeHS2vuqp2UmJiZa+6uFQiGMjIy0YnDZ1XTt2pW5ns9KxsjISGvGTyAQsMrguo4vD75yuNC0kOnWrZtWfdXrYGBgoPV+e3I1NDRklu0CLSq3iYmJ7cpRMz5fzPbkwXf8adqMLx/N+yGVShltgfbAZRXEd4+5+ruurm6b2gmabQa0bZGk2S6TJ0/W0gtoLVeu+EKhkLV0WxMuOyiuvvdnxcfHBykpKXB1dUVKSgpWrVoFoGVlkaa9YXl5Oe7cucOpmQDwa1qonqLb2trCw8MDU6dOxfnz59G1a1dG3yEiIgIrV65k3a/a2lr06dOHiTto0CAAbP2FiIgIlJeX4/Hjx1rlurm5IS4uDvHx8di3bx9WrFgBMzMz6Onp4eHDhzh69Cg++OAD5nwujQwV5P+2wKhjbm7O9COVTkZb5OfnMzoUenp6jI4H0PL3i8u2k0KhvHiSk5Nx/fp11jHV1rCjR48yx9RtXVWv1S1snzx5wmwtkkqlrCfzEolEaxudCnVLaHUbXD773eLiYkRGRkKpVGLRokXYtGkTXFxcEBMTg02bNjFbobisbAkhKC8v1/q7pmnbq35ctd2S71yVJfVvv/2G3NxcxMTEcG6xUqeoqAjNzc0Qi8XMMU1LXnWb50GDBmHTpk1YtmwZRo0ahU2bNjGrQPmsfNVtr1VUVVWhsrJSK5/ffvtNS6OnNbtqABCLxVqxVq5ciU2bNmH//v04fPgwFAqFVh0lEgm++eYbfP3114iJiUFERAR++OGHVvNWod7HVDkplUrcv3+fs5yGhgZkZ2fjjTfeANB+m+nWrKpV7cX13asquzXr5urqalY8vj6pQrM9WquzUCiESCTCxYsXOWNRXi46dQtAZ9KeZduUZ8fV1ZW19/tlpCOXIv6ZUA1SKW0zbtw41usPP/wQy5cvR3JyMgQCAZRKJaKiohAbG8tsN1LXTADQpr5DUVERBg4ciP3792P58uW4fft2q/oOPXv2RFVVFR4+fAhLS0vs27cPzs7OvPoLubm5WroXKsRiMTOwDw0NxZo1a9CrVy/W5E1rGhlSqRSEkFYndlQ/XNT1SDQZMmQIo40hlUpZHtqVlZXtntyjUCgdS319PZqamljHUlJSMHv2bOzZswf5+fkYOHAgYmNj8fDhQ9jY2GDp0qUsC9usrCzcvHkTMpkMo0aNwuDBg3HkyBGsWbMGADB79mzerXuqrUWadsQHDhxg2e8+ePAAW7ZsgZ6eHj799NNWl41zWQeLxWLMnDkTLi4uyMrKwp49eyAUChnb3pKSEkyePBnjx49Hc3MzFixYgJ49e+L69evYs2cP9PX1MW3aNAwYMADFxcWYMWMG3N3dERoaChMTE7zzzjvw9/fH5MmTsXz5cvTr1w9z5sxhPXiqq6vD1KlT4ejoiNzcXFRVVeHChQsoKCjQ2hL266+/cm6rUofrur59+2rZXjs6OmLlypWor6+Hvr4+unfvzky8bNq0CQ4ODrh+/TpWr14NJycnXrtq1f339PTE2rVrYWNjAxMTE8TExAAAHj9+zHwP9uzZEwqFAlOnTsXhw4cBADt37oSjoyOsrKzw9ddfw9/fH+PHj2fqw5W3iqSkJFYfCw4OZtp+9OjROHLkiFY5T548wYQJEwDw2yZz2R7/73//47SqBoBPPvkEzs7OqKiogKurKyOI3Nr9UJGcnIxr167h0aNHCAkJwYgRI7T6pPrDAK72aKvO/v7+SEpKwsiRI3k/H5SXg7/tBADlxfO8++golD87M2bMYL12c3NDWVkZvL290adPH5SXl2PJkiWwt7fHli1btDQTALSp72BhYYGVK1eiZ8+eKC4uxquvvoq1a9e2qu+QmJiIqKgoKJVKDBo0CDo6Orz6C5q6F+fOnUNAQAAIIWhqasL27dsBACNGjMCHH36Ib775hlUWn0YG0CL6WFBQwDiutIa6HomlpSXrvbCwMMyePRsZGRmorq5mXAEIITA0NPzLrByhUF4WcnNzsWHDBuTk5ODMmTOwsLDAV199BX19ffz666+Ijo6GUqlESkoKYmNjQQiBn58fxo4dyzxtVP0NfPz4MWbNmgUACA4ORnBwMNasWQO5XI6amhoYGxu3uqIMaFl1sG/fPtTW1kImk2HJkiW4du0a44Tz0UcfYcSIEViwYIHWKjl1VLo1J06cgEAgwPfff4/k5GRMnDgR69atw2uvvYb09HRkZGTg7t278Pf3h6+vL5RKJWJiYjB+/Hg0NTVh9erV6N69O06fPo19+/ZBLpdjypQp8PHxASEEEydOhLu7O6qrq5GUlMSsEBSJRPj8888xb948xMXFYfny5UxuiYmJCA8Px4QJEyCRSDB48GAAQHR0NHbv3g1LS0tUV1cjKioKe/fuxbfffssIunLBdd3u3bvh5+eHt99+G7/99hs2b96MqVOnoq6ujhGc/vLLL5kn2P7+/vDy8kJDQwMiIiKQmprK2X7q9z81NRVeXl4ICQnBhQsXmHy2bt0KY2NjVFRUQCQSQV9fH/b29sjJycGgQYNw/vx5REZGYsyYMUhJSYGvry+cnJywatUqJr563uoP+mxtbbX6mHrb37x5U6uc6OhoTJ48mWmr5ORkWFlZoaSkBO+//z4UCgV27tyJH374AUKhED/++CO2bdum9R2uztixY7Fw4UIAwHvvvYcpU6a0ej/27t3LvH/p0iUsW7YMffv2xfXr11FXV6fVJydOnAigZbUCV3u0VWcdHR3cu3ePN3/KywOdAKBQKJQOxM/PD35+fnjy5AlMTU2ZwWnPnj1x5MgR1NbWsrZNuLi44PDhw5DL5ZxbPIyNjbF//340NDQwPxK7du3KGUvFsWPHkJSUBCMjI+zYsQPW1tYAgKVLl2qJGunp6eHEiROQSqUwMjLiXIUAtDzNHzp0KBwcHAAAvXr1YiwA3333XUZAUH2bSGBgIL7++musXr2aeQKi+j8AvPHGG8zyyilTpuC9995jXb9u3Trm33v27EFDQwNry9K5c+cwevRoznwpFMqL47XXXkNKSgri4uLg5uYGNzc3AC2fybq6OmzYsAFAi0Do2rVrAbBta9X/nZubi6NHj4IQwgw+vLy8cPz4ceTn5yM0NLTNfDRtcDU5dOgQTp48iWnTpmHixImsgZc6fNbBhBBs2rQJXbp0QVFREaZMmYK8vDzGtlcgEDBPsk1MTBghNRsbG/zyyy94+PAhrly5gpMnTzJlSaVSmJubM3/XJRIJtm/fjtzcXERFRWHo0KGs3EpLS+Hv7w+gZbufnZ0dc7w1y18+uK7jsr3Oy8tjWQGrBrDA79tpjY2NmQkbPutl1T0PCgrC5s2bERgYyIg/A8Dq1asZp5uFCxciKysLs2fPRnx8PAICAuDm5gYdHR2IxWKEhYUhLCwMCQkJ2LhxIxYuXNiqXTdXH1Nve65y1L9f+WymuWyPVRMzXKi349ChQ1FaWtrq/VDns88+w/r161FTU4OVK1dy9kkVfPblbdUZ4N66R3n5eOknADR/hLeGRCKBjo4O54/wjlDp/LMpwz4LqjYihEAgENCn/BQKD3xKulwDdl1d3TZVj7k0JPj0HUaOHInQ0FB069YNvXv3ZmlVcH1m+XQvVCiVSkyfPh3Lli3jPYdLI2L48OHYvn07xGJxq/FVtPXDVbMNUlNTWW4EFArlj8XZ2ZllzZmWloY1a9Ywf/+ePHmC06dP814vFotx9epVpKamQiaT4Z133gHQYp+qGvgvWbKk1Ry4bHDnzp2rpRvg4eGBcePG4ciRI1AqlZzbAPisgzdt2oRPPvkE/fr1Y7YjqNv2yuVyLFmyBF9++aVWTEIIBg8eDGtra2YFwOXLl7V+az58+BCjR4/mre/YsWMZXZabN28iKysLAHi3hLW2rYrvOi7b68GDB2Pr1q2YOnUqgN8nW7hoj111ZmYmwsPD0a1bN/j6+rKW8atobGyErq4u+vXrh4qKCuzatQvr168HAPj6+uLUqVMQCAQYNWoUUlJSeO26Af4+pg5XOWZmZigvL4eNjQ2vzTSX7TGfVTUAXLhwAW+++SYIIbh27RqWLl3a6v1Q5+LFi9iyZQtqa2sxb948WFtba/VJFa21R2t1VigUWlt6KC8nf6oJgMzMTIwaNQpAy2xbTk4OS+zpWVi2bBk2bNjQLluL7777DgYGBvDx8dF6b86cOawnV89CR8TobFRtZG1tjVOnTrFmKykUyp8DFxeXDv1bIxAInjleUlLSC5soTExMbFMYk0KhvDjGjBnD/Lu+vh51dXWsY1ZWVli4cCH69+/Peb2RkREMDQ0xZ84cCIVCZvuPoaEhLC0tWcupKysrmX3VADBv3jwA3Da4gLb9LtAiujpp0iTe+vBZB/v6+iIqKgoDBgxAXV0dRo8ezdhUZ2RkQCwWIzw8nDduWFgYIiIicPbsWVRVVbGefKuwtbWFra0tbwwfHx9UVFTA398f1tbWjOAq35aw1rZV8V3HZXstEong7OyMoKAgmJqaQiQSwczM7KnaTx1zc3OEh4eje/furPqqbKslEglGjx7NPEn38/PDoUOHGB2DOXPmwNvbG6+88gru3buHhIQEmJmZcdp1A/x9TBPNcoYNG4Zbt25h5MiRvDbTXLbHQqGQ06oaaNH0mTlzJmpqahAcHMya9G5ra59q5YNYLMa7774LkUik1SdV8NmXt1XnvLw8rZUnlJeUP8pugMsG8MGDB4xFXV1dHfnggw9IVVUVkclk5Pz58+TTTz9lWZQVFxezXovFYiKVSklZWZlWeUVFRUQikZDw8HDGLkomk5G7d+9qWfL99ttv5NGjR+TAgQPk6NGjnPn7+/sTpVJJiouLtezLHj58SCoqKljHuMpSt+bgel+pVJKysjKW1UVrdVR//969e6zjXLEaGxsZGzIV5eXlWu2h2c6EcLfRe++9x2kLR6H8mXgRNoAUCoXyR/FXtAF8WrhslkNDQzntc1uLoWmD+zTXq8NlHSyXy0lTU5PWuU9TRl1dnVaO7SUvL4/5/SWRSLRsEbn6iLrNMx9c13HdD01b6dZoj/Vye9tt+/bt5KeffmIdUyqVnFbDXHm35z2ucsRiMZk0aRLrHD6baa5c+OovkUhabcfWPuvNzc2sMQhfn1TxtHVetWoVuXr1aqvXdAbUBrDj6bQVAJrqlLm5uYxi6dy5c5GcnIyioiI4ODhg0qRJWuqpb7/9Nt555x24urpCX18fAoEA69evh0QiQXBwMJycnJCXl4ecnBwA/Oqaqj2xSqUSWVlZrL1N6jQ3NyMgIABOTk64fPkyVqxYAVdXV0YZVVdXFwqFAnFxcSgoKMCiRYswYsQIXLx4EbGxsRgyZAgTiysXExMTLTXPLl26cNZRhVwux7/+9S/Y2trC0dERV69eZcRmNGMVFhZqqa5qquZaWFhwqtTytdG4ceNw9uxZeHt7v8CeQqFQKBQK5WVG02Z53bp1eOuttzi3PrU3BsC9dao9cFkHC4VCTgHBpynjeRxLBgwYgLS0NBw+fBhCoRCff/45632uLWHt0QPgup/IBzgAACAASURBVI6rLZ9mJVd7rJfb027Hjh1DaWkps9pDhY6ODqcwJFfe7XmPqxxDQ0O4urri8uXLzGoLPptprlz46t/WqrXWrJv19PRY1t58fVLF09RZZWf4vCuvKX8R/qiZBvUVAM3NzeTHH38khBBSUVFBFi9eTAhhPyG/fv06Wb9+PSGEkK1btzKznkqlkowfP57IZDLy1ltvMedHRkaSkpISEhcXRw4fPsyU4+DgQB4/fkwCAgJIZWUlIYSQqqoqEhwcTLKyskhkZCQTIzQ0lHcFwLhx45hZsbq6OuLp6Ulu3LjBuv7TTz8lP//8M5k8eTLzpL2mpob4+vqy6seVS0lJCblz5w4hhJADBw6Q48eP89ZRhUwmI6+++iqRSqWEEEJOnz5N1q9fzxkrJSWFpKSkEEIIM9vn7e1N6urqSFlZGbl37x5nO7fWRlevXiUxMTGc7UWh/Fl4mVcAPH78mJSVlTH/qf6uPCt1dXWkubmZNDU1PdVTrUePHjH/rq+vJzk5OUShUDxzHo8fP35hs/0NDQ3k1q1bf8jqJdXqs78KqhVllD8Xf4cVABTKnxGZTPbMKzb+imiucP6zQFcAdDydsgKAT52Sj7y8PE71VHV/TBsbG1RVVSE/Px++vr4AWmbKVDNZXOqa+fn5LEVO1QwfF3p6eoyvvYmJCXR1dbWUUd3c3HDnzh1IJBJmz4+ZmRmUSiUrFlcuhEfNk6uONjY2zDEnJydmVtbV1RX79+/njMWluqqpmsvVzrdu3eJtI1NTUzx58oS3zSiUvxvx8fHw8PBgbOo0uXv3LoyNjVl7Ap8Wda0UlSif6klK3759MX/+/GeOvWPHDnh4eEAqleLSpUu8Qk+aqPRN9u7dix9++AH29vbIyspCWloaTE1NWTm3h6fRblGnrXLi4+ORkZEBJycnXLt2DWFhYfDy8nqqMvjQ1K3JyMjA1atX4ebmhgcPHsDPz69d13Um2dnZVNuFQqFQ/o+2xHlfNqimzt+HTunZfOqU6oqlenp6kEgkANAu9VSgRWl1yJAhjCqrVCrF5cuXAXCra+ro6CAuLo5RNs3IyGA8PzWRyWS4dOkSRo4ciZqaGiYvdWXUjIwM+Pn54fz58ygtLYWNjQ0qKyu1FFi5ctmxYwevmqdmHdW5du0ao7CdkZGBoUOHcsbSVF11d3fXUs3lamdTU1PeNiovL//LuxpQKM/D3LlzWZ/XoKAgdOvWDRKJBIaGhnjw4AHMzMxgaGiI5uZmHDx4EC4uLhg9erTW37CioiL06dMHcrmcUcyXy+UoLS1F3759oaenh/r6esTFxcHBwYERYVq5ciVjnaRCIpFAIBCgqqqKeU8mkzHWRiYmJtDX10dVVRUUCgVLxZsLrvNkMhnKy8tZIk7ffPMNjh8/DgD44Ycf8MMPP2DixImsnMViMbM0UiaTQaFQMG1RXFzMmUtJSQl69OjBXCeRSGBgYICSkhLY2NhAIBCgoqICCQkJEIlE6NGjBxQKBSoqKpj6nz17FoWFhTh06BATNyAgAA4ODhg4cCBnOfX19Vq5CoVC6OjooL6+HoQQ9OjRA4QQ/Prrrzh79izs7e0Z1eu0tDTo6emhubmZ875wXadOY2MjHj58yNh9cfUJQgjEYjGz1FcsFqNLly5QKpWs+y0UClntwRXL1dUV69evb7drA4VCoVAolL8enTIBwKdOqa5YOnDgQFy+fBlpaWntUk9VERYWhtmzZyMjIwPV1dXMkzgudc1+/frBzs4OwcHBAH4fXGdmZuLQoUMs24w+ffpg165d2Lt3L8rKyrBhwwaWMqpQKISTkxOGDx+OLVu2YPbs2ejVqxfKy8uRmJjIypErFy6F2fZgaWmJ4OBgWFhYoLGxEf/+97+RlZWlFUtTdZVLNVckEmm1s5ubG2cbAcDt27cxbNiwduVJobyMPHr0iPV68+bNmD59OlJTU1FTUwNra2tcu3YNGzZsgFgsxpkzZ3Dr1i2Ympoyvtl1dXWYOnUqHB0dkZubi6qqKly4cIFTK+TXX39ltFLU7YPUkcvlnNoh58+fR3x8PPr164dly5Zh27ZtWvolXKxcuRLV1dUwMDCAlZUVli9fjtzcXCxevBgjR47ElStX0NjYCKBF8fvrr7+Gv78/Y+10+PBhVs6RkZGMo0BmZiZyc3MREhLCqd0ilUo5dUlCQ0Nhbm7O6Mjs3r0be/fuxZUrVxAfH4+PP/4YgYGBcHR0RH5+Pg4ePIjk5GStydVt27ZBJpNBKpUiJCQEIpEIBQUFmDBhAoKCgjBr1qz/396dx2lZFvof/zIjCMiIOpaUiaKAIeAx0tTO71V21KOlKaEGSankAmJJmMfj9nI/llu+MhEMMcU8ubRQp9OmpR5zocw0jyJuLE6piSAMy7AMz+8PXjyHYZ5BXNLyer//cXiW+7qe+xkG78/c9/W0m2vfvn1zzTXXZJdddklTU1MOPvjgHHDAAW3WrfnXf/3XNDQ0pEePHrnzzjsze/bsHHPMMe3elzPPPLPN80aOHFmd27Rp03LLLbdk4MCBmTVrViZOnJi5c+e2W19mu+22y+mnn179d+bSSy/NiBEj0tTUVH2/x40bl3HjxrXZH88880zNdXGs7QIA73Jv17UGtT4FoNbqlOuuWNra2trmOs3Xs3pqc3NzzetFal1Ht/6KnIsXL65cddVVG73dlpaWmq/lta7ZW//+11rNc30rV66sjBw5slKptF9tdGNXq621am6t/Vxr1dLDDz/c9aL83ftbrAHwox/9qHL00UdXdthhh8rRRx9dOe+88yqVSqVy1llnVZ5++unKWWedVV3nZN68eZUvfvGLlUqlUrnyyisrDzzwQJvtXnLJJZX//u//rlQqa/4+7rjjjpVKpfZaIZVK27VSRo8eXTnkkEMqw4cPrwwfPrzyy1/+ssO1Q+64447KWWedValUKh2uX/K1r32t8sc//rHywAMPVK688srKo48+WvnKV75Sfdz48eMrTzzxROWII46ornMye/bsyoc+9KFKpbLm5851111XOeSQQypnn312ZeXKle3mvO7Xd911V2XixIkdrt1Sa12SSqVS2W+//ar/NvzgBz+o3HjjjW22PXv27Mqxxx5baW1trfzhD3+oLF68uN2K2ev65je/WR1/9erVlYMPPriydOnSmnO94447Kuecc0719kMPPbRSqbRdt+bOO++s/htyxx13VCZPntzh+7Lu89ZatWpVZf/996/+HP7Vr35Vueeee2quL7NgwYLK6NGjq88999xzKzNmzGjzftfaHx19f1nb5e+PNQCAklkD4K33jl7cUmt1ynVXLK2rq2tzGuLrWT21o9VFa62uuf6puC0tLRk7duxGb7ejlVE3tJJnrftfazXP9XXq1Km6RsAbXa221ntQaz+vv48eeOCB7LXXXn+zz/eGv2dDhw7N0KFDM2LEiNxwww01H7P272ZjY2P1N+S1zJ07N8OHD0+y5u/j2tO9a60VUsuECRPandZda+2QJNlhhx2SpMP1S9Y3c+bMPPbYYxkzZkySZP78+VmwYEFaWlqq6xhsv/321dP2135O8bHHHpuJEyfm0ksvzZlnntlmm506dWo3Tkdrt3S0/ktjY2P134bevXvnnnvuabO97bffPgceeGC+8IUvZPfdd8+QIUPS2NiYF198sc0lBk1NTWlubs7MmTPzmc98pjq/AQMGVC8Tq2Xd/VvrcrSFCxfW/Plf632p9XN6/vz52W677ar37b///kmSyy+/vN36Mh3NMfm/97vW/ujo+8vaLgDw7lb3Tk/g71FjY+PrOhB/p9TX17f5WMC30x577PGmFhuDd4MDDjjgdT1+3bVN1tpvv/3y3e9+N0ny2GOP5ZFHHknyf2uFTJo0KZdccklOPvnkJP+3VsrrUVlv7ZBBgwblvvvuq/557foh6xs4cGAGDx6cSZMmZdKkSTn11FOz5557ZvPNN8/zzz+fZM3B+wsvvJAkGTZsWHXR03/+53/OvHnz2s25a9eu1cVfn3322SSprt2SpM3aLYMGDcqwYcMyadKkTJw4Meecc06H678ka+JHsmY9hf79++fmm2/OX//61zz++OM58cQTc8YZZ1Tnt3r16owfPz6bbLJJdt111+r4ra2tefzxx7PddtvVnGtH1n1vt9xyyzQ1NW3w8WvnXet7orGxMU1NTVm5cmWS5Ic//GHuuuuu9OzZM3Pnzk2S6voyPXv2zMKFC6vPrTXPWvujo+8va7sAwLtbWctb8pYpbWVUqGXUqFGv6/H77bdfTjrppHTr1q26BsDQoUPzwgsvZPjw4Xnf+95X/aSNWmuFJG3XSklS3V6SbLHFFrn66qtfcx4drV/y61//us3jdtlll/Tq1SujRo1KfX19+vTpk4985CP5j//4j5x00kn5wAc+kPnz52fAgAFJ1nwawCGHHJIPfOADee655zJx4sR2c/7yl7+c4cOHp1+/flm+fHkGDhzY4dotr2f9l2TNWi2nnXZazjnnnJx99tnZeuutM3v27Oywww7ZbLPN8vzzz+eQQw7Jtttum6amppx22mnp169fdtppp5x88sm566678tJLL+XUU0/NpptuWnOuHVl33ZpPf/rTuf7661/zfVj/eWtfX11dXS644IIMGzYsffv2zapVq3LllVdm8ODBNdeX2XfffXPUUUdlq622ytKlS9uN8Z73vKfd/ujo+8vaLgDw7tapsv6vhv5GKpVKHnzwwey9995vx3AASdZ8UkZDQ0P69ev3prbz9NNP573vfe9rXtrzWpYvX566urp07tw5yZrfoD/xxBMZOnRoWlpacvjhh1dX0k9qn06+ZMmSdO/efYOnf2/sXFavXl3zUqD1H1epVNr99n3dVfLXqlQqaW5uzuabb97hnFetWpVVq1a1297ixYuz2WabtXtdzc3N6d69+0admbV48eLqpU7rfr2uV199NT179qw5Trdu3doEzo7mWsvq1avT0tKS7t27Z8SIEZk8efJGXbq27vPW1dramuXLl7e7vdb3xLJly9KlS5cN7qNa+2P9bR1xxBH57ne/6/KuvyP3339/Bg4c+KZ/9rxZc+bMSY8ePdLY2PiOzgMoy6233prPfvazb/r/efg/LgEAeBttuumm1YP/JOnbt28eeuihfOELX8iYMWNyySWXtHl8rf/pr3WQ/Ebn8loH/2sfV+sAuNbBbadOndod/Cdt57zJJpvU3F6PHj1qvq61H2O3MdY9wO1oLZgtttiiw3HWP7upo7nWsu66NePHj2/3CTAb87x11dfX17y91vdEt27dXnMf1dof627L2i4A8O7nPG6Ad1BdXV0uuuiid3oavMX23HPP7Lbbbu/0NF6XPfbYo83ikADAu48AAAB/A/9ov0m3tgsAvPu5BAAAAAAKIAAAAABAAQQAgLfYihUrsnjx4nd8G2/Eyy+/nBkzZmT16tVv+9jLly/PkiVL3tQ25s+f/7rv29Bz1nr11Vff8JzeCatXr86CBQtq3r5w4cIk/3ivCQB48wQAgLfYww8/nOuuu+4d38b6rr766jzzzDM171uxYkXGjh2bM844I9/73vcydOjQPPXUU2/p+K/l8ssvz9ixY1/38+67777cfvvtSbLB53d032uNeffdd2fKlCltxqmlpaUlDz/88EbM+G/vr3/9a/7t3/6t5u3nnntuFi9enNGjR78DMwMA3kkCAMAbdNJJJ23w/ubm5vz5z39ud/ucOXPS3Nzc5rYlS5Zk1qxZHW7r5ZdfzosvvtjmthUrVrS5bdmyZUmSv/zlL9Wv1zVy5Mj06dMnSbJ06dK89NJL1fsuuOCC7L///rnuuutywQUXZOrUqRk7dmxWrVpVc36VSqXNb+uXLl2a1tbWNnOoNc6GXuv06dPT3NycRYsWJUn1v2ut3WeVSiVNTU2pVCpJkt133z0HHnhgu+298MILWblyZZvbKpVK5syZk5aWlnaP72huV111VUaPHl0dZ+XKlVm1alUWLFhQPXugUqnkd7/7XaZNm9buve1ou6tWrcpzzz1XnWNH+3TteK+88kpWrFiR1tbWNDU1bXBb62tubm7znB49emTAgAG5//77az4eAHh3suQvwBv0yiuvdHjfbbfdlhkzZmSrrbbKvHnz8u1vfzvLly/P0UcfnQEDBuTpp5/Opz71qYwcOTLTpk3LLbfckl122SV//OMfM3Xq1DbbOvvsszNv3rx07do122yzTc4444w89NBDueKKK9KvX78sXrw43/jGN3LxxRdn/vz5ed/73peHH344X//619O/f//qdq644oocc8wxWbJkSS688ML07t07DQ0NOf/88/P73/++zccRbrHFFpkwYUJWrFiRn/70p+3m19ramtNPP736WfeXXnppRowYkZtvvjl//etf07t37xx88MHtxpk2bVpuuummDBo0KLNnz87kyZPTpUuX/M///E/+3//7f+ndu3duvfXWHH/88Rk7dmwmTpyYhoaGPPPMM/n2t7+dM888M8cdd1yGDBmSRx55JN/5znfywAMPZPbs2TnuuOOq8x87dmy22WabPP744zn33HMzcODArFixIiNGjMiuu+6a6dOn56yzzsqee+5ZfU6tuS1cuDANDQ3p0aNH7rzzzsyePTs77LBDrrnmmuyyyy5pamrKwQcfnAMOOCBTpkzJrFmzsvPOO2fkyJFttnvLLbdk4MCBmTVrViZOnJi5c+fmq1/9avbee+/cf//9ufjii7PddtvV3KdNTU25+uqrs+OOO2bcuHEZN25cBg4cmKeeeiq33XZbnnnmmYwfPz577LFHHn300Xzzm99M586dq+N///vfz/e///3svPPOefTRR7PDDjskSYYPH57Jkyfnox/96Ov5tgcA/oEJAACv07Rp0zJt2rRMnz49xxxzTPr06ZNzzz23zWO23nrrXHvttUmSr33ta/nVr36VmTNnZvjw4Rk2bFgqlUoOOeSQHHroobnmmmvy85//PPX19fnNb36Tq666Kvvuu2+S5E9/+lOWLFlSPSg85ZRTMmPGjLS2tmbSpEnp2bNnTjrppCxatCiVSiWHH354PvGJT+SVV17JaaedlilTprSb/yOPPJJPf/rTOfroo3Pvvfdm5cqV2Wyzzdo9buedd05ra2vN+XV09kOlUskRRxyR/fbbLzfeeGObcdbO+Wc/+1nq6uryk5/8JFOmTMmJJ56YqVOn5sILL8yWW26Zww47LMcff3w+//nP5z//8z8zevToTJkyJccff3wWLVqUiy66KB/84Adzyy235O677273cXsrV67MEUcckU984hN58cUXc8UVV+Syyy7L0qVLc/HFF2fIkCFpbm7OkUcemf/6r/9Kkg7n1r9//+y+++7tXufgwYNz/vnnJ0mGDh2aww8/POPHj88vfvGLNgf/6++/O+64I9OnT8+ECRMyefLkbLPNNlmwYEGOO+64mu/VWoMGDcpFF12UOXPmZOutt86FF16YRx55JEuXLs0555yT66+/Pu9973szb968jB8/Ppdddll1/GuvvTa//OUvU1dXl5tuuil/+MMfkiQDBgzIc8891+GYAMC7jwAA8DoNHTo0Q4cOzYgRI3LDDTfUfMwee+xR/XrPPffME088kZkzZ+Yzn/lMkqRTp04ZMGBAnnjiiWy33Xapr69Pkuy11165/vrrqwFg5syZeeyxxzJmzJgkaxasW7BgQVpaWnLKKaekS5cueeCBB6qny2+33XZJksbGxg4X1Bs5cmSuuOKKfO5zn8tRRx2Vzp0711xw8KGHHkrPnj1rzq9Tp04d7p+1v2Fef5z58+dn7ty51WvuV6xYkSFDhmTx4sW59957c+ONNyZZc4nEk08+mQMOOCDDhw/PF7/4xcydOzf9+vXLnDlzcvnll2fTTTfNrFmzcuSRR6ZXr15txm9tbc1PfvKT/OAHP2hzqn/nzp2z2267JUkaGhrafO59R3NbuHBhevbs2e41rt3PSdK1a9cO98X8+fPb7L/9998/yZr1DrbZZpskyZZbbpnVq1dv1D7dfvvtc+CBB+YLX/hCdt999wwZMiRz587NOeecU33sujFn/vz56d27d+rq1lzxt+eee1YDQJLqZRQAQBkEAIA36IADDujwvt/+9rfVr+++++78y7/8Szp37px77703Rx55ZFpbW/P444/n/PPPT1NTU1auXJnOnTvnrrvuqh6kJsnAgQMzePDgXHnllUmS3/3ud/nwhz+cESNG5LbbbkunTp1yxBFHvK5533fffRk9enQ233zzDBs2LJ/85Cez//77Z/LkyTn++OOTJPPmzcuZZ56Zn/70pzXn17Nnz+pq8kny7LPPvuY4BxxwQPr06ZOJEyemU6dOefbZZ9PQ0JDbbrstY8aMySc+8YkkSd++ffOd73wnl1xyST784Q/n/PPPz6GHHpokmTBhQs4888zsuOOOmTBhQs3X95vf/CaDBw/OF7/4xTz++OPVfbdy5co8+OCD+ehHP9pu5f/Gxsaac3v88cfz5JNPbtR+7dy5c7u1FxobG9vsvx/+8IfZcsst07Nnz8ydOze9e/fOSy+9lC5dumzUPp01a1b69++fm2++OWeccUYef/zx7LTTTjn//POzzTbbZOHChW3WnWhsbMzzzz9fHf/uu++u3tfa2prly5dv1GsDAN4dBACAN2jUqFEd3tejR48MHz48m222Wbbeeuvss88++djHPpaTTz45d911V1566aWceuqp6datWy644IIMGzYs73//+6unoj/00ENJkl122SW9evXKqFGjUl9fnz59+uQjH/lI9tlnn4waNSoNDQ0dLmjXkcbGxowePTpbbLFFtt9++yTJV7/61Zx33nk57LDDsuWWW2b+/Pm5/vrr06VLl5rzS5J99903Rx11VLbaaqssXbr0Ncepq6vLuHHjcsQRR6RXr15ZtmxZJkyYkB/96Ee5/fbbq79J32233XLttdemtbU1o0aNyu6771799IJhw4Zl/Pjx6du3bxYtWpSPf/zj7cbda6+98sUvfjGPPfZYNt100+p2t91223z729/OTTfdlOeffz5f//rXq8/paG677bZbrr/++o3ar/3798/06dMzderUHHXUUdXtrt1/ffv2zapVq3LllVdm8ODBOeGEE9KrV680NTVt9D59z3vek7PPPjtbb711dT2CCy+8MCeeeGJ69+6dpqamXHrppW1e16mnnpphw4blfe97X+rr66tnCMycOTP/9E//tFGvDQB4d+hUeZvO/6tUKnnwwQez9957vx3DASRZ83F6DQ0N6dev35vaztNPP533vve9NU8H78ja37B27969ze3Nzc3p1q1bm1PQW1tbs2TJkmy++eY1t7V8+fJUKpU2p5u3tLRk00033eCp4xuyePHi9OjRo92ca82jo9uXLVuWLl26VE9x35hxWltbs3Tp0jQ0NLyhebe2tqa1tTVdunTZ4OOWLVuWbt261ZzPZpttVnO/1ZrbiBEjMnny5I2a7+rVq9PS0tLuPe/oe6HWJQZvZJ92tK0NjX/eeeflkEMOyZAhQ17zdfHOuf/++zNw4MDX9bPnb2HOnDnp0aNHGhsb39F5AGW59dZb89nPfvYN/78O7fkYQIC/kfr6+nYHfEn768/XPrajg/8kbX6TvVbXrl3f1D+I6x9AbmgeHd3erVu3DR6o1hqnvr7+DR/8r33+ax38r51bR/PpaL/Vmtv48eOrv6F/LXV1dTXf846+F2od1L2RfdrRtjoaf+3HEjr4B4CyuAQAADZgzz33bLMuw7vBZpttVv2UCgCgHM4AAIDXsP5HDb4bbOjTCwCAdycBAAAAAAogAAD8nVi2bNnrXtF/Q1599dW35HPeX3755cyYMSOrV69+C2b1+jz33HN5+eWX35axXn311TZ/njVrVmbPnv22jP33YsGCBe/0FACAvyEBAOBtdt999+X2229vd/uPf/zj/OIXv3jLxjn99NPbfK78ulpaWvLwww9v8PkrVqzI2LFjc8YZZ+R73/tehg4dmqeeeuotm9+GLFq0KIceemhuvPHGnHzyybnpppuSbNy877vvvtc93vz583PyyScnSf785z9n6NChueaaa/Ktb30rRx11VBYvXvz6X8Q/oMmTJ+eee+55p6cBAPyNCAAAb9BJJ51U/Xrtx8fV+vPaFdfX2n333XPggQdW//zSSy9l/vz5Ncdobm6ufr1y5cq0tLRk5cqVWbVqVRYuXJgXXnih3XNmz57d7kyCFStW5MUXX0yy5mNZf/e732XatGlttj9nzpw2f77ggguy//7757rrrssFF1yQqVOnZuzYsVm1alWSZNWqVXnuueeycuXK6naXLFlSff7SpUvT2tpane8rr7ySFStWpLW1NU1NTW3mt/4+uuuuu3LwwQfn/PPPz/e+973ccccdNeddqVTS1NRUPdPhhRdeyMSJEzN//vwO57P265deeql639VXX50TTjghSTJ69OhceeWVueyyy3LFFVfkK1/5SjUO1JrrihUrsmLFinbv2bJly5Ikf/nLX2qOmaw5u2Lt+1LLyy+/3O4564/f0evcmPHX39aJJ56Yq666qsP5AAD/2HwKAMAb9Morr1S/bm1tzdFHH139zf4NN9yQXr16ZeXKlbnllluyyy675I9//GOmTp2a6dOnZ/bs2TnuuOPy7//+71m+fHlWr16dRx55JKecckqbMY4//vjccsstSdb8ZvvJJ59M3759c/nll2ennXZK9+7ds2LFinzzm9/MsmXL8vnPfz677rprZs6cmSeeeCJJ8tBDD+WKK65Iv379snjx4px//vmZMmVKZs2alZ133jmHHXZYjjrqqPTt2zezZ8/OqFGjsv/+++f3v/99Lrrooupctthii0yYMCErVqzIrFmz8tWvfjV777137r///lx88cXZbrvtcvrpp1c/Mu/SSy/NiBEj0tTUlKuvvjo77rhjJIsHugAAFLJJREFUxo0bl3HjxmXgwIF56qmnctttt+XHP/5xbrrppgwaNCizZ8/O5MmT079//0yePDmf/OQn84EPfCBTp05Nc3Nzm3kfdNBBOe644zJkyJA88sgj+c53vpObbropDz30UK6++uqcfPLJNeezfPnyXHjhhendu3caGhpy/vnn58EHH8w555yTGTNmpF+/funTp0/1dQ8ZMiRf/vKXkyTTpk1r937++te/TktLS0aMGNHmPbv44ovz17/+Nb17987BBx/cbsyzzz478+bNS9euXbPNNtvkjDPOaPPen3322Wlubk6XLl2yxRZb5Kyzzqo5fmtra83XefPNN29w/GnTprXb7w0NDenatWvmz5+frbba6k3+DQEA/t4IAACv07Rp0zJt2rRMnz49xxxzTPr06ZNzzz03ffv2zZNPPpkPfvCD+eUvf5mbb745Bx10UH7+85+nvr4+v/nNb3LVVVdlzz33TJI8+uijWbZsWfU3rscee+xGz2GrrbbKhAkTkiRnnXVWHnzwwUyfPj0jR47MsGHDsnLlygwePDjJmjgxadKk9OzZMyeddFIqlUrGjx+fX/ziFxk5cmSuuuqqHHnkkRk6dGgqlUoOOuig7LPPPtlss83ajbvzzjsnWXNwOnny5GyzzTZZsGBBjjvuuEyZMqXD+Q4aNCgXXXRR5syZk6233joXXnhhHnnkkTQ3N2fSpEn52c9+lrq6uvzkJz/JlClTcuKJJ+ayyy7LJZdckqamppx11lnZfffd28x77ty5ueiii/LBD34wt9xyS+6+++6cdtppefjhh3POOee0u6Z/rUceeSSf/vSnc/TRR+fee+/NqlWr0r179yRJU1NTm4P/tT70oQ+ltbU111xzTbv3c+DAgTXHqVQqOeKII7LffvvlxhtvbDPmn/70pyxZsqR60H7KKadkxowZGTBgQJLkT3/6UxYtWlT93vjGN76RefPm1Rx/3TNRNnb8td8Ttfb7hz/84fzv//5vPvaxj3X4fgIA/5hcAgDwOg0dOjQ33HBD9txzz9xwww0599xzkyQnnHBCrr/++jz22GMZPHhwXn311Wy33Xapr69Pkuy1116ZMWNGdTtPPfVU9thjj+qf14aBdXXq1KnmHNZ/3pNPPtlme507d86QIUOSrDnN+5RTTsmJJ56Y++67L4sWLWqzrZkzZ+aHP/xhxowZkxNPPDHJmmhQ67r3hx56KAsWLMiyZcuyzTbbJEm23HLLrF69usO5JskOO+yQJNl+++1z4IEH5gtf+ELuueeeLF++PHPnzs3YsWMzZsyYTJs2rXr5RP/+/fOtb30rU6ZMyZe+9KV2lzVUKpVcfvnlOemkkzJ16tR2C9h1NJ+RI0fmxRdfzOc+97ksXrw4ixYtyuabb54k2XHHHfPkk0+2e84dd9yR+fPn13w/N+Z1rz/mzJkz89hjj2XMmDEZM2ZMmpqa2sx/5syZbd7jU045JZVK5S0bf/78+TX3e5L07Nmzw3gCAPxjEwAA3qADDjigzZ/79OmTF154IZMmTcqxxx6bxsbGNDU1Va+Rv+uuu7LbbrtVHz9o0KD89re/rf757rvvbjdG165dqwe+zz77bPX2e++9t/r1Pffck1133TWDBw+u3t7S0pLp06cnSSZOnJjrrrsuEydOTL9+/ZKsCQRrrxEfNGhQhg0blkmTJmXixIk555xz0rVr1+y///6ZPHlydZx58+blzDPPTENDQ3r27Jm5c+cmWbOGQZcuXdKzZ882iw6uO9+1Zs2alf79+1dPT3/xxRfTp0+fTJw4MZMmTcpZZ52Vz372s7nxxhvzox/9KMmasx223XbbLF++vM28J0yYkDPPPDMTJkzIQQcdVB1j7RoFHc3nvvvuy+jRo3PzzTfn2muvTc+ePatrKey00055+eWX8+ijj1af9+CDD+b222/v8P3s06dP9Tr61tbWmp8csP6YAwcOzODBgzNp0qRMmjQpp556apsANGjQoDaLGZ577rmpq6urOf7G7Pf1x29sbKy535M1Z0E4/R8A3p1cAgDwBo0aNardbYcddlimTp2a97///UnWLKQ3bNiwvP/976+edr32QH/AgAHp06dPPv/5zydJzY/s+/KXv5zhw4enX79+Wb58efV088WLF+fII49M586d06dPnwwZMiSDBw/OCSeckLvvvjvz5s1L3759kyT77LNPRo0alYaGhmpM6N+/f6ZPn56pU6fm2GOPzZgxY3LnnXfm5ZdfzlFHHZUk+epXv5rzzjsvhx12WLbccsvMnz8/119/fTbZZJNceeWVOeGEE9KrV680NTVVT2Xfd999c9RRR2WrrbZqsyjiWu95z3ty9tlnZ+utt87s2bOr6wIcccQR6dWrV5YtW5YJEybkmGOOyahRo/Kzn/0sixYtyq677pqePXume/fu1XkPGzYs48ePT9++fbNo0aJ8/OMfT5Jsu+22Oe2003LppZfWnE9jY2NGjx6dLbbYIttvv33q6+uzySabpFKppFOnTpk8eXJOPvnk6vvRo0ePfOtb30pdXV3N97O+vj6TJ0/Ol770pdTV1VXPjFjX+mPusssu6dWrV0aNGpX6+vr06dMnH/nIR6qPHzBgQHbbbbeMHDkyPXv2zIABA9LY2Fhz/I3Z7+uPX1dXV3O/J2vOTBk/fny7bQAA//g6Vd6KD4neCJVKJQ8++GD23nvvt2M4gCTJww8/nIaGhupvvt+op59+Ou9973vTs2fP1/3c1tbWLFmypHqa+fpaWlpSX1+fzp0717x/1apVWbVqVbp27ZokufPOOzN79uwcc8wxWblyZbp169bm8YsXL85mm23W5tTwlpaWbLrppm1uW716dVpaWqrXvzc3N6d79+7VU8w3Zv4LFy5st0+WLVuWLl26tNvO+nPs0aNHmzGWLl2ahoaGNo9bunRpOnfu3GbfrDvv1tbWtLa2pkuXLh1uv6P5rPuYyy67LHvssUf22Wef6v0tLS2pVCrt9m9H+6O5ubnd/F/rdS9fvjyVSqX63q5v+fLlqaura/P6Oxr/rdjvzc3NGTNmTG6++eYNvg7ePvfff38GDhz4hn72vJXmzJmTHj16pLGx8R2dB1CWW2+9NZ/97Gc3eLkbr49LAAD+xurr6zs8+E/WnObf0cF/kmyyySZtDhB79OiRrbbaKptsskm7g9O196//D2XXrl3b3VZXV1c9+E+ShoaGmgePG5p/rYOSbt26bfAgdO0c1x+j1sFz9+7d2+2bdeddX1/f7uB//e13NJ91HzNmzJjceOONbe7v2rVrzf3b0f54rYP/9cdMkk033bTDg/+196//+jsa/63Y79dcc03GjRu3wW0AAP+4XAIA8A9mr732eqen8K7T0NBQPZ2+ZOPGjdtgkAAA/rE5AwAAsua37aVz8A8A724CAAAAABRAAAAAAIACCAAAAABQAAEAAAAACiAAAAAAQAEEAAAAACiAAAAAAAAFEAAAAACgAAIAAAAAFEAAAAAAgAIIAAAAAFAAAQAAAAAKIAAAAABAAQQAAAAAKIAAAAAAAAUQAAAAAKAAAgAAAAAUQAAAAACAAggAAAAAUAABAAAAAAogAAAAAEABBAAAAAAogAAAAAAABRAAAAAAoAACAAAAABRAAAAAAIACCAAAAABQAAEAAAAACiAAAAAAQAEEAAAAACiAAAAAAAAFEAAAAACgAAIAAAAAFEAAAAAAgAIIAAAAAFAAAQAAAAAKIAAAAABAAQQAAAAAKIAAAAAAAAUQAAAAAKAAAgAAAAAUYJO3a6BOnTplxowZ+ctf/vJ2DQmQ5ubmfOpTn3rT26mvr88vfvGLbLLJ2/ZjEyALFy7Mhz/84Xd6Gqmvr8+dd97pZyDwttpkk03SqVOnd3oa7yqdKpVK5e0arLW19e0aCqCqvr7+TW+jUqlk9erVb8FsAF6ft+Jn2JvlZyDwTujUqVPq6py0/lZ6WwMAAAAA8M6QUwAAAKAAAgAAAAAUQAAAAACAAggAAAAAUAABAAAAAAogAAAAAEABBAAAAAAogAAAAAAABRAAAAAAoAACAAAAABRAAAAAAIACCAAAAABQAAEAAAAACiAAAAAAQAEEAAAAACiAAAAAAAAFEAAAAACgAAIAAAAAFEAAAAAAgAIIAAAAAFAAAQAAAAAKIAAAAABAAQQAAAAAKIAAAAAAAAUQAAAAAKAAAgAAAAAUQAAAAACAAggAAAAAUAABAAAAAAogAAAAAEABBAAAAAAogAAAAAAABRAAAAAAoAACAAAAABRAAAAAAIACCAAAAABQAAEAAAAACiAAAAAAQAEEAAAAACiAAAAAAAAFEAAAAACgAAIAAAAAFEAAAAAAgAIIAAAAAFAAAQAAAAAKIAAAAABAAQQAAAAAKIAAAAAAAAUQAAAAAKAAAgAAAAAUQAAAAACAAggAAAAAUAABAAAAAAogAAAAAEABBAAAAAAogAAAAAAABRAAAAAAoAACAAAAABRAAAAAAIACCAAAAABQAAEAAAAACiAAAAAAQAEEAAAAACiAAAAAAAAFEAAAAACgAAIAAAAAFEAAAAAAgAIIAAAAAFAAAQAAAAAKIAAAAABAAQQAAAAAKIAAAAAAAAUQAAAAAKAAAgAAAAAUQAAAAACAAggAAAAAUAABAAAAAAogAAAAAEABBAAAAAAogAAAAAAABRAAAAAAoAACAAAAABRAAAAAAIACCAAAAABQAAEAAAAACiAAAAAAQAEEAAAAACiAAAAAAAAFEAAAAACgAAIAAAAAFEAAAAAAgAIIAAAAAFAAAQAAAAAKIAAAAABAAQQAAAAAKIAAAAAAAAUQAAAAAKAAAgAAAAAUQAAAAACAAggAAAAAUAABAAAAAAogAAAAAEABBAAAAAAogAAAAAAABRAAAAAAoAACAAAAABRAAAAAAIACCAAAAABQAAEAAAAACiAAAAAAQAEEAAAAACiAAAAAAAAFEAAAAACgAAIAAAAAFEAAAAAAgAIIAAAAAFAAAQAAAAAKIAAAAABAAQQAAAAAKIAAAAAAAAUQAAAAAKAAAgAAAAAUQAAAAACAAggAAAAAUAABAAAAAAogAAAAAEABBAAAAAAogAAAAAAABRAAAAAAoAACAAAAABRAAAAAAIACCAAAAABQAAEAAAAACiAAAAAAQAEEAAAAACiAAAAAAAAFEAAAAACgAAIAAAAAFEAAAAAAgAIIAAAAAFAAAQAAAAAKIAAAAABAAQQAAAAAKIAAAAAAAAUQAAAAAKAAAgAAAAAUQAAAAACAAggAAAAAUAABAAAAAAogAAAAAEABBAAAAAAogAAAAAAABRAAAAAAoAACAAAAABRAAAAAAIACCAAAAABQAAEAAAAACiAAAAAAQAEEAAAAACiAAAAAAAAFEAAAAACgAAIAAAAAFEAAAAAAgAIIAAAAAFAAAQAAAAAKIAAAAABAAQQAAAAAKIAAAAAAAAUQAAAAAKAAAgAAAAAUQAAAAACAAggAAAAAUAABAAAAAAogAAAAAEABBAAAAAAogAAAAAAABRAAAAAAoAACAAAAABRAAAAAAIACCAAAAABQAAEAAAAACiAAAAAAQAEEAAAAACiAAAAAAAAFEAAAAACgAAIAAAAAFEAAAAAAgAIIAAAAAFAAAQAAAAAKIAAAAABAAQQAAAAAKIAAAAAAAAUQAAAAAKAAAgAAAAAUQAAAAACAAggAAAAAUAABAAAAAAogAAAAAEABBAAAAAAogAAAAAAABRAAAAAAoAACAAAAABRAAAAAAIACCAAAAABQAAEAAAAACiAAAAAAQAEEAAAAACiAAAAAAAAFEAAAAACgAAIAAAAAFEAAAAAAgAIIAAAAAFAAAQAAAAAKIAAAAABAAQQAAAAAKIAAAAAAAAUQAAAAAKAAAgAAAAAUQAAAAACAAggAAAAAUAABAAAAAAogAAAAAEABBAAAAAAogAAAAAAABRAAAAAAoAACAAAAABRAAAAAAIACCAAAAABQAAEAAAAACiAAAAAAQAEEAAAAACiAAAAAAAAFEAAAAACgAAIAAAAAFEAAAAAAgAIIAAAAAFAAAQAAAAAKIAAAAABAAQQAAAAAKIAAAAAAAAUQAAAAAKAAAgAAAAAUQAAAAACAAggAAAAAUAABAAAAAAogAAAAAEABBAAAAAAogAAAAAAABRAAAAAAoAACAAAAABRAAAAAAIACCAAAAABQAAEAAAAACiAAAAAAQAEEAAAAACiAAAAAAAAFEAAAAACgAAIAAAAAFEAAAAAAgAIIAAAAAFAAAQAAAAAKIAAAAABAAQQAAAAAKIAAAAAAAAUQAAAAAKAAAgAAAAAUQAAAAACAAggAAAAAUAABAAAAAAogAAAAAEABBAAAAAAogAAAAAAABRAAAAAAoAACAAAAABRAAAAAAIACCAAAAABQAAEAAAAACiAAAAAAQAEEAAAAACiAAAAAAAAFEAAAAACgAAIAAAAAFEAAAAAAgAIIAAAAAFAAAQAAAAAKIAAAAABAAQQAAAAAKIAAAAAAAAUQAAAAAKAAAgAAAAAUQAAAAACAAggAAAAAUAABAAAAAAogAAAAAEABBAAAAAAogAAAAAAABRAAAAAAoAACAAAAABRAAAAAAIACCAAAAABQAAEAAAAACiAAAAAAQAEEAAAAACiAAAAAAAAFEAAAAACgAAIAAAAAFEAAAAAAgAIIAAAAAFAAAQAAAAAKIAAAAABAAQQAAAAAKIAAAAAAAAUQAAAAAKAAAgAAAAAUQAAAAACAAggAAAAAUAABAAAAAAogAAAAAEABBAAAAAAogAAAAAAABRAAAAAAoAACAAAAABRAAAAAAIACCAAAAABQAAEAAAAACiAAAAAAQAEEAAAAACiAAAAAAAAFEAAAAACgAAIAAAAAFEAAAAAAgAIIAAAAAFAAAQAAAAAKIAAAAABAAQQAAAAAKIAAAAAAAAUQAAAAAKAAAgAAAAAUQAAAAACAAggAAAAAUAABAAAAAAogAAAAAEABBAAAAAAogAAAAAAABRAAAAAAoAACAAAAABRAAAAAAIACCAAAAABQAAEAAAAACiAAAAAAQAEEAAAAACjA/weN6ceab1CAjQAAAABJRU5ErkJggg==;" parent="1" vertex="1">
          <mxGeometry x="130" y="230" width="1386.68" height="1040" as="geometry" />
        </mxCell>
      </root>
    </mxGraphModel>
  </diagram>
</mxfile>
